<svg id="svg" version="1.1" width="2048" height="512" xmlns="http://www.w3.org/2000/svg"><path d="M35.250 4.875 C 32.362 7.506,30.000 10.012,30.000 10.444 C 30.000 11.989,38.525 22.942,39.750 22.971 C 41.897 23.021,41.125 19.945,38.000 16.000 C 36.350 13.917,35.000 11.724,35.000 11.127 C 35.000 10.530,37.019 8.180,39.487 5.905 C 43.685 2.035,44.473 -0.061,41.691 0.045 C 41.036 0.070,38.138 2.244,35.250 4.875 M196.500 1.537 C 247.251 5.750,363.629 12.339,434.000 14.983 C 448.575 15.530,466.350 16.200,473.500 16.472 C 480.650 16.743,495.158 17.260,505.739 17.620 L 524.978 18.274 532.069 27.154 C 542.899 40.717,558.842 53.379,575.853 61.928 C 580.448 64.237,584.048 66.242,583.853 66.384 C 583.659 66.526,571.575 66.315,557.000 65.916 C 542.425 65.516,518.575 64.909,504.000 64.567 C 489.425 64.225,474.350 63.741,470.500 63.491 C 466.650 63.241,454.950 62.792,444.500 62.493 C 434.050 62.195,421.450 61.746,416.500 61.496 C 411.550 61.246,401.875 60.800,395.000 60.506 C 379.355 59.834,327.365 57.206,316.000 56.512 C 311.325 56.226,299.175 55.540,289.000 54.987 C 217.893 51.120,31.794 35.734,3.750 31.403 L 0.000 30.824 0.000 34.912 C 0.000 38.135,0.370 39.002,1.750 39.009 C 2.712 39.014,14.075 40.120,27.000 41.466 C 65.897 45.517,146.953 52.743,189.500 55.952 C 233.351 59.260,272.139 61.995,275.409 62.009 C 276.559 62.015,273.737 63.855,269.139 66.099 C 257.779 71.643,247.537 81.630,242.559 92.016 C 240.608 96.087,238.734 100.899,238.395 102.709 C 237.831 105.714,237.462 106.000,234.139 105.999 C 230.908 105.998,187.385 102.901,150.000 100.012 C 106.301 96.635,11.975 87.921,3.250 86.455 C 0.040 85.916,0.000 85.957,0.000 89.861 L 0.000 93.812 4.750 94.421 C 16.562 95.934,83.567 102.184,128.500 105.964 C 149.111 107.698,233.497 114.000,236.101 114.000 C 236.595 114.000,237.000 115.623,237.000 117.606 C 237.000 123.423,239.883 133.021,243.686 139.861 C 247.775 147.217,256.741 156.592,263.443 160.520 C 265.999 162.017,267.958 163.340,267.795 163.458 C 267.633 163.576,259.850 163.101,250.500 162.403 C 241.150 161.704,214.150 159.752,190.500 158.065 C 166.850 156.377,142.325 154.533,136.000 153.966 C 129.675 153.399,104.475 151.146,80.000 148.958 C 33.607 144.810,7.428 142.286,2.750 141.507 C 0.147 141.074,0.000 141.256,0.000 144.897 C -0.000 149.266,-0.073 149.239,15.213 150.588 C 22.661 151.246,22.889 151.342,21.829 153.385 C 19.503 157.869,9.861 168.960,5.087 172.642 C 0.478 176.197,0.082 176.839,0.043 180.807 L 0.000 185.113 3.214 183.307 C 8.404 180.390,22.291 166.063,27.078 158.687 C 31.194 152.346,31.708 151.910,34.500 152.390 C 36.150 152.674,46.388 153.696,57.250 154.661 C 72.011 155.972,77.000 156.747,77.000 157.730 C 77.000 159.507,69.844 173.628,65.339 180.741 C 50.947 203.466,30.276 222.199,7.920 232.778 L 0.054 236.500 0.027 240.708 L -0.000 244.915 5.750 242.191 C 22.247 234.377,34.187 226.369,46.459 214.889 L 53.032 208.741 69.766 210.353 C 160.180 219.066,250.258 225.491,351.500 230.451 C 368.550 231.287,387.225 232.212,393.000 232.508 C 424.423 234.119,521.476 237.061,576.044 238.057 C 632.920 239.095,639.384 239.049,647.370 237.553 C 676.661 232.064,699.191 215.324,712.378 189.250 L 715.034 184.000 738.017 184.000 C 750.658 184.000,761.000 184.189,761.000 184.420 C 761.000 186.329,753.872 204.286,750.250 211.500 C 732.617 246.625,701.902 272.222,664.283 283.143 L 653.066 286.399 584.105 285.168 C 521.790 284.055,442.408 281.889,415.000 280.554 C 409.225 280.272,398.425 279.777,391.000 279.454 C 376.795 278.835,324.676 276.032,280.000 273.485 C 200.739 268.966,72.262 258.804,14.155 252.458 C 6.815 251.656,0.627 251.000,0.405 251.000 C 0.182 251.000,0.000 252.800,0.000 255.000 C 0.000 257.200,0.401 259.000,0.892 259.000 C 1.382 259.000,12.969 260.103,26.642 261.452 C 269.589 285.412,528.280 296.018,797.000 293.036 C 848.425 292.465,893.200 291.792,896.500 291.540 C 899.800 291.288,918.475 290.827,938.000 290.516 C 957.525 290.204,979.125 289.731,986.000 289.465 C 992.875 289.199,1012.900 288.540,1030.500 287.999 C 1048.100 287.459,1068.575 286.780,1076.000 286.491 C 1137.026 284.113,1200.452 281.408,1227.500 280.028 C 1237.950 279.495,1256.175 278.587,1268.000 278.010 C 1334.906 274.747,1381.617 272.202,1442.500 268.506 C 1455.700 267.705,1482.250 266.131,1501.500 265.008 C 1520.750 263.886,1550.450 262.090,1567.500 261.016 C 1584.550 259.943,1610.200 258.361,1624.500 257.500 C 1658.668 255.445,1699.334 252.560,1737.000 249.519 C 1753.775 248.165,1783.025 245.901,1802.000 244.488 C 1841.829 241.522,1889.857 237.573,1911.500 235.483 C 1919.750 234.686,1942.025 232.678,1961.000 231.019 C 1979.975 229.360,2002.925 227.336,2012.000 226.521 C 2021.075 225.705,2032.888 224.743,2038.250 224.382 L 2048.000 223.726 2048.000 217.363 C 2048.000 213.863,2047.654 211.000,2047.231 211.000 C 2046.808 211.000,2043.147 212.393,2039.095 214.095 C 2030.791 217.584,2035.466 217.046,1948.500 224.527 C 1932.550 225.899,1912.750 227.681,1904.500 228.487 C 1896.250 229.293,1860.475 232.219,1825.000 234.988 C 1789.525 237.758,1752.400 240.689,1742.500 241.501 C 1697.902 245.162,1620.562 250.344,1541.000 255.002 C 1522.025 256.113,1491.875 257.918,1474.000 259.014 C 1411.837 262.825,1392.429 263.973,1380.500 264.546 C 1373.900 264.863,1367.487 265.328,1366.250 265.580 C 1362.513 266.341,1363.720 264.428,1368.250 262.412 C 1381.981 256.298,1405.003 236.460,1415.349 221.826 L 1420.067 215.152 1426.284 214.571 C 1429.703 214.252,1449.150 213.078,1469.500 211.963 C 1489.850 210.848,1526.525 208.598,1551.000 206.963 C 1575.475 205.328,1613.275 202.875,1635.000 201.511 C 1691.811 197.944,1700.934 197.283,1746.500 193.432 C 1769.050 191.526,1805.275 188.622,1827.000 186.978 C 1883.082 182.734,1916.180 180.041,1918.500 179.532 C 1919.600 179.290,1929.500 178.385,1940.500 177.520 C 1969.829 175.213,2011.828 171.019,2016.955 169.885 C 2023.885 168.352,2033.848 164.154,2041.250 159.649 C 2047.888 155.608,2048.000 155.469,2048.000 151.270 C 2048.000 148.921,2047.776 147.000,2047.502 147.000 C 2047.229 147.000,2044.866 148.522,2042.252 150.383 C 2029.277 159.618,2020.039 162.574,1998.184 164.482 C 1988.458 165.331,1979.712 166.203,1978.750 166.419 C 1975.969 167.044,1976.631 166.352,1982.599 162.390 C 1994.432 154.536,2003.923 139.119,2006.281 123.922 L 2007.588 115.500 2013.044 114.876 C 2016.045 114.534,2025.138 113.688,2033.250 112.997 L 2048.000 111.742 2048.000 107.890 L 2048.000 104.038 2043.750 104.528 C 2032.120 105.869,2010.479 108.000,2008.490 108.000 C 2006.646 108.000,2006.026 107.162,2005.073 103.377 C 2001.229 88.111,1988.479 73.352,1973.551 66.888 C 1970.517 65.575,1968.026 64.229,1968.017 63.898 C 1968.008 63.566,1972.388 62.990,1977.750 62.617 C 1983.112 62.244,1993.800 61.281,2001.500 60.477 C 2016.449 58.916,2046.005 56.031,2047.250 56.012 C 2047.662 56.005,2048.000 54.359,2048.000 52.352 L 2048.000 48.705 2038.250 49.370 C 2032.888 49.736,2021.975 50.690,2014.000 51.491 C 1973.163 55.594,1937.382 58.807,1880.500 63.482 C 1857.400 65.380,1831.300 67.616,1822.500 68.450 C 1791.789 71.362,1749.130 75.000,1745.693 75.000 C 1742.399 75.000,1742.147 74.745,1740.526 69.750 C 1735.132 53.136,1723.061 39.569,1708.299 33.529 C 1704.975 32.168,1703.140 30.957,1704.000 30.690 C 1704.825 30.434,1717.425 29.248,1732.000 28.055 C 1746.575 26.862,1775.825 24.319,1797.000 22.404 C 1818.175 20.489,1853.725 17.388,1876.000 15.513 C 1898.275 13.639,1928.875 10.982,1944.000 9.609 C 1959.125 8.236,1980.050 6.388,1990.500 5.501 C 2031.889 1.991,2043.541 0.922,2044.500 0.546 C 2045.050 0.330,2020.300 0.182,1989.500 0.217 C 1958.700 0.252,1934.400 0.486,1935.500 0.737 C 1938.672 1.462,1939.714 3.000,1937.033 3.000 C 1934.544 3.000,1894.336 6.310,1845.500 10.535 C 1829.550 11.915,1808.400 13.720,1798.500 14.546 C 1788.600 15.372,1771.050 16.930,1759.500 18.007 C 1747.950 19.085,1723.425 21.104,1705.000 22.495 C 1686.575 23.885,1662.725 25.691,1652.000 26.507 C 1641.275 27.323,1608.875 29.566,1580.000 31.490 C 1551.125 33.415,1511.075 36.106,1491.000 37.469 C 1393.024 44.122,1284.989 50.300,1277.500 49.678 C 1267.954 48.884,1254.533 44.471,1240.500 37.511 C 1224.993 29.821,1213.657 21.510,1201.593 8.989 L 1192.686 -0.257 1181.093 0.392 C 1139.296 2.728,931.547 10.000,906.592 10.000 C 900.216 10.000,895.000 9.702,895.000 9.338 C 895.000 8.974,896.160 6.696,897.578 4.277 L 900.156 -0.123 895.970 0.189 C 892.155 0.472,891.574 0.894,889.410 4.950 C 888.105 7.397,886.440 9.734,885.711 10.142 C 883.395 11.438,841.637 11.411,841.204 10.113 C 840.995 9.484,841.510 6.950,842.351 4.484 L 843.879 -0.000 840.169 -0.000 C 836.549 -0.000,836.412 0.139,834.480 5.750 L 832.500 11.500 793.000 12.000 C 771.275 12.275,753.370 12.445,753.212 12.379 C 753.054 12.312,755.079 10.848,757.712 9.126 C 760.345 7.404,764.075 4.658,766.000 3.024 L 769.500 0.054 760.750 0.027 C 752.211 0.001,752.000 0.057,752.000 2.363 C 752.000 4.282,750.917 5.201,746.250 7.246 C 737.372 11.136,735.014 11.465,733.322 9.049 C 731.259 6.103,729.005 6.524,727.663 10.104 L 726.500 13.209 718.500 12.537 C 707.941 11.650,706.000 11.113,706.000 9.083 C 706.000 8.147,705.361 6.509,704.581 5.441 C 703.185 3.533,703.121 3.537,700.787 5.731 L 698.412 7.962 693.456 5.341 C 690.730 3.900,687.612 2.109,686.527 1.361 C 685.443 0.612,682.552 -0.000,680.103 -0.000 L 675.651 -0.000 678.076 2.643 C 679.409 4.096,683.200 7.039,686.500 9.182 L 692.500 13.078 656.000 12.410 C 614.705 11.653,610.743 11.089,597.177 4.032 C 590.828 0.728,588.441 0.007,583.964 0.038 L 578.500 0.075 582.438 3.445 C 588.188 8.366,600.336 14.534,609.500 17.186 L 617.500 19.500 731.000 19.398 C 793.425 19.342,865.425 18.764,891.000 18.114 C 983.801 15.756,1104.783 11.488,1184.240 7.769 L 1189.980 7.500 1200.740 18.038 C 1215.729 32.718,1227.178 40.483,1245.858 48.639 C 1250.061 50.474,1253.050 51.982,1252.500 51.989 C 1249.940 52.024,1208.494 54.011,1200.500 54.482 C 1195.550 54.773,1174.850 55.672,1154.500 56.480 C 1134.150 57.287,1113.000 58.190,1107.500 58.487 C 1084.393 59.733,951.537 63.718,872.000 65.551 C 825.099 66.632,685.430 67.525,645.500 67.000 L 607.500 66.500 598.000 63.198 C 566.869 52.379,539.715 30.652,525.341 5.060 C 522.716 0.387,522.214 0.002,518.750 0.001 C 516.688 0.000,515.000 0.298,515.000 0.662 C 515.000 1.026,516.187 3.349,517.637 5.825 L 520.275 10.325 494.887 9.641 C 454.402 8.551,398.329 6.167,346.000 3.310 C 306.023 1.128,287.219 0.623,239.000 0.436 C 183.956 0.222,181.445 0.287,196.500 1.537 M1274.500 1.221 C 1277.999 2.444,1309.909 2.387,1324.000 1.131 C 1331.367 0.475,1326.539 0.272,1302.500 0.228 C 1279.690 0.187,1272.293 0.449,1274.500 1.221 M1521.250 5.410 C 1518.912 8.333,1517.000 11.140,1517.000 11.647 C 1517.000 12.154,1519.471 15.009,1522.492 17.992 C 1526.799 22.246,1528.246 23.154,1529.198 22.202 C 1530.151 21.249,1529.385 19.945,1525.652 16.154 L 1520.891 11.320 1524.445 7.065 C 1526.400 4.725,1528.000 2.178,1528.000 1.405 C 1528.000 -1.347,1525.438 0.173,1521.250 5.410 M1558.250 4.379 C 1556.463 6.753,1555.000 9.128,1555.000 9.657 C 1555.000 10.886,1565.515 20.000,1566.933 20.000 C 1569.256 20.000,1567.776 17.103,1563.434 13.152 L 1558.868 8.997 1562.555 4.499 C 1566.122 0.145,1566.165 0.001,1563.870 0.031 C 1562.265 0.052,1560.452 1.454,1558.250 4.379 M1483.577 7.358 C 1481.060 10.305,1479.000 13.132,1479.000 13.642 C 1479.000 14.151,1481.471 17.009,1484.492 19.992 C 1488.799 24.246,1490.246 25.154,1491.198 24.202 C 1492.151 23.249,1491.403 21.962,1487.731 18.235 L 1483.050 13.482 1487.092 8.754 C 1490.723 4.507,1491.437 2.000,1489.018 2.000 C 1488.543 2.000,1486.095 4.411,1483.577 7.358 M73.783 8.663 C 70.878 11.228,68.350 13.703,68.166 14.164 C 67.771 15.158,76.148 26.929,77.281 26.971 C 79.529 27.055,78.941 23.510,76.127 20.008 C 74.407 17.868,73.000 15.735,73.000 15.267 C 73.000 14.799,75.005 12.448,77.457 10.043 C 81.517 6.058,82.374 4.000,79.974 4.000 C 79.475 4.000,76.689 6.098,73.783 8.663 M1445.577 10.358 C 1443.060 13.305,1441.000 16.132,1441.000 16.642 C 1441.000 17.151,1443.471 20.009,1446.492 22.992 C 1450.799 27.246,1452.246 28.154,1453.198 27.202 C 1454.151 26.249,1453.412 24.964,1449.773 21.244 L 1445.134 16.500 1449.059 11.642 C 1452.641 7.209,1453.292 5.000,1451.018 5.000 C 1450.543 5.000,1448.095 7.411,1445.577 10.358 M111.155 11.960 C 104.949 17.613,104.960 18.152,111.434 25.500 C 115.081 29.640,115.955 30.203,116.519 28.770 C 116.970 27.621,116.156 25.723,114.099 23.126 C 112.395 20.973,111.000 18.713,111.000 18.103 C 111.000 17.494,112.800 15.369,115.000 13.381 C 118.946 9.816,120.187 6.957,117.750 7.045 C 117.063 7.070,114.095 9.282,111.155 11.960 M1411.682 8.461 C 1409.182 10.961,1403.000 18.647,1403.000 19.256 C 1403.000 20.355,1413.534 29.976,1414.750 29.988 C 1417.081 30.011,1416.014 27.590,1411.799 23.295 L 1407.598 19.015 1409.805 16.257 C 1414.578 10.291,1415.315 8.915,1414.284 7.884 C 1413.600 7.200,1412.755 7.388,1411.682 8.461 M1370.569 14.575 C 1368.056 17.660,1366.000 20.720,1366.000 21.376 C 1366.000 22.032,1368.362 24.900,1371.250 27.750 C 1375.204 31.653,1376.870 32.702,1377.999 32.003 C 1379.223 31.244,1378.604 30.166,1374.616 26.118 L 1369.734 21.161 1373.367 16.728 C 1375.365 14.289,1377.000 11.804,1377.000 11.206 C 1377.000 8.289,1374.713 9.487,1370.569 14.575 M149.586 15.297 C 145.088 19.322,143.890 20.950,144.586 22.092 C 147.327 26.596,152.666 32.927,153.750 32.961 C 155.899 33.028,155.123 29.944,152.000 26.000 C 150.350 23.917,149.000 21.810,149.000 21.318 C 149.000 20.826,151.008 18.745,153.462 16.694 C 156.310 14.313,157.718 12.428,157.355 11.482 C 157.042 10.667,156.497 10.001,156.143 10.002 C 155.789 10.003,152.838 12.386,149.586 15.297 M187.472 18.401 C 180.789 24.378,180.749 23.749,188.364 32.500 C 190.866 35.376,192.154 36.198,192.946 35.426 C 193.744 34.648,193.075 33.077,190.524 29.736 C 188.586 27.197,187.000 24.718,187.000 24.227 C 187.000 23.736,188.800 21.888,191.000 20.120 C 194.808 17.060,195.960 14.712,194.190 13.618 C 193.745 13.342,190.722 15.495,187.472 18.401 M225.210 21.395 L 219.595 26.791 223.943 32.426 C 228.994 38.973,229.797 39.603,231.243 38.157 C 232.002 37.398,231.251 35.792,228.656 32.625 C 226.645 30.171,225.000 27.729,225.000 27.198 C 225.000 26.667,226.800 24.607,229.000 22.619 C 232.829 19.160,234.219 16.000,231.912 16.000 C 231.314 16.000,228.298 18.428,225.210 21.395 M894.621 35.409 C 892.080 38.385,890.000 41.213,890.000 41.694 C 890.000 42.175,892.458 44.996,895.463 47.963 C 900.050 52.494,901.033 53.077,901.598 51.605 C 902.074 50.364,901.085 48.630,898.215 45.676 L 894.159 41.500 898.077 37.000 C 900.232 34.525,901.996 31.938,901.997 31.250 C 902.003 28.567,899.038 30.239,894.621 35.409 M819.109 36.140 C 816.321 39.088,814.030 42.192,814.020 43.038 C 813.997 44.834,822.997 54.000,824.784 54.000 C 826.930 54.000,826.098 51.894,822.035 47.042 L 818.070 42.307 821.121 39.403 C 825.139 35.580,826.474 33.074,825.182 31.782 C 824.511 31.111,822.499 32.555,819.109 36.140 M856.691 36.433 C 854.111 39.422,852.000 42.148,852.000 42.493 C 852.000 42.838,854.316 45.568,857.146 48.561 C 861.132 52.775,862.592 53.754,863.620 52.900 C 864.687 52.015,864.141 50.840,860.853 46.940 L 856.757 42.083 860.862 37.419 C 864.793 32.954,865.331 31.000,862.632 31.000 C 861.944 31.000,859.271 33.445,856.691 36.433 M703.990 37.174 C 701.265 40.103,699.027 43.082,699.018 43.793 C 698.994 45.557,707.941 55.000,709.637 55.000 C 712.003 55.000,711.133 52.868,706.889 48.263 L 702.777 43.803 706.889 39.614 C 709.150 37.309,711.000 34.905,711.000 34.271 C 711.000 31.280,708.516 32.309,703.990 37.174 M742.318 37.074 C 739.668 39.864,737.345 42.578,737.156 43.106 C 736.662 44.481,745.878 55.000,747.577 55.000 C 749.958 55.000,749.193 52.857,745.061 47.958 L 741.122 43.286 745.061 39.440 C 748.700 35.887,750.271 32.000,748.068 32.000 C 747.556 32.000,744.968 34.283,742.318 37.074 M779.647 37.484 C 774.219 43.771,774.245 43.966,781.419 50.954 C 784.902 54.347,786.270 55.130,787.158 54.242 C 788.047 53.353,787.333 52.000,784.162 48.560 C 781.873 46.077,780.000 43.747,780.000 43.384 C 780.000 43.021,781.820 40.750,784.044 38.337 C 787.874 34.181,788.421 32.000,785.632 32.000 C 784.944 32.000,782.251 34.468,779.647 37.484 M1647.450 35.784 C 1646.928 36.215,1643.887 38.312,1640.694 40.445 C 1627.674 49.137,1619.165 63.238,1617.127 79.500 L 1616.500 84.500 1608.500 85.218 C 1586.593 87.183,1368.242 100.372,1281.500 104.969 C 1230.456 107.674,1226.905 107.849,1189.000 109.526 C 1120.009 112.578,1085.826 113.960,1062.955 114.620 L 1039.411 115.299 1037.633 108.903 C 1033.555 94.237,1022.725 80.670,1009.754 73.980 C 1006.043 72.066,1003.006 70.162,1003.004 69.750 C 1003.002 69.338,1008.513 68.994,1015.250 68.986 C 1033.497 68.965,1146.613 64.641,1198.000 62.000 C 1208.725 61.449,1231.450 60.314,1248.500 59.479 C 1289.876 57.451,1440.214 48.588,1486.500 45.448 C 1559.721 40.481,1595.840 38.099,1615.500 36.940 C 1626.500 36.292,1635.688 35.590,1635.917 35.381 C 1636.146 35.171,1639.048 35.000,1642.367 35.000 C 1645.685 35.000,1647.973 35.353,1647.450 35.784 M1674.000 37.500 C 1675.292 38.875,1676.893 40.000,1677.559 40.000 C 1678.225 40.000,1679.507 38.875,1680.408 37.500 C 1682.150 34.841,1684.856 34.420,1692.294 35.649 C 1695.396 36.162,1696.345 36.889,1697.493 39.638 C 1699.053 43.371,1700.458 43.801,1703.146 41.368 C 1705.303 39.416,1708.585 40.468,1715.131 45.210 C 1718.307 47.510,1719.062 48.616,1718.632 50.330 C 1717.811 53.601,1719.339 55.383,1722.323 54.634 C 1725.129 53.929,1726.846 55.759,1730.910 63.789 L 1733.081 68.078 1731.040 70.943 C 1728.291 74.805,1728.449 75.553,1732.250 76.639 C 1735.416 77.543,1735.508 77.727,1735.796 83.717 C 1736.237 92.878,1735.089 96.220,1731.152 97.240 C 1726.893 98.344,1726.004 100.775,1728.980 103.185 L 1731.293 105.058 1727.505 110.557 C 1722.929 117.201,1722.559 117.458,1717.500 117.481 L 1713.500 117.500 1713.799 121.293 L 1714.097 125.085 1706.614 128.543 C 1698.363 132.355,1695.862 132.743,1694.000 130.500 C 1691.854 127.914,1689.017 128.667,1688.350 132.000 L 1687.750 135.000 1680.500 135.000 C 1669.706 135.000,1666.976 134.230,1665.799 130.854 C 1664.616 127.460,1663.392 127.283,1660.416 130.078 C 1657.903 132.440,1657.296 132.244,1645.847 125.368 C 1640.206 121.980,1640.195 121.965,1640.744 117.874 L 1641.294 113.775 1637.397 114.432 C 1633.653 115.063,1633.393 114.924,1630.765 110.868 C 1629.261 108.546,1627.285 104.694,1626.374 102.308 C 1624.837 98.286,1624.836 97.838,1626.358 96.156 C 1628.741 93.524,1628.384 91.135,1625.500 90.411 C 1623.483 89.904,1623.000 89.163,1623.000 86.575 C 1623.000 81.985,1624.917 72.248,1626.696 67.802 C 1628.093 64.311,1628.536 64.000,1632.109 64.000 C 1635.342 64.000,1636.000 63.660,1636.000 61.986 C 1636.000 60.879,1635.450 59.091,1634.777 58.014 C 1633.715 56.314,1634.004 55.591,1636.973 52.528 C 1638.853 50.588,1642.039 47.859,1644.052 46.464 C 1647.612 43.997,1647.793 43.974,1650.688 45.635 C 1655.017 48.120,1657.391 46.899,1656.585 42.602 L 1655.952 39.226 1663.226 37.190 C 1667.227 36.071,1670.759 35.120,1671.076 35.077 C 1671.392 35.035,1672.708 36.125,1674.000 37.500 M1669.500 59.344 C 1655.536 63.953,1647.003 73.886,1647.032 85.500 C 1647.056 95.344,1652.852 103.163,1663.993 108.379 C 1669.701 111.052,1671.544 111.418,1679.000 111.364 C 1692.940 111.263,1704.257 105.607,1710.400 95.671 C 1713.842 90.103,1714.893 82.237,1712.973 76.418 C 1711.202 71.053,1703.908 63.646,1697.714 60.924 C 1691.315 58.112,1675.855 57.246,1669.500 59.344 M1696.258 67.330 C 1699.441 68.892,1703.209 71.718,1704.682 73.650 C 1709.366 79.791,1708.861 90.551,1703.686 94.845 C 1702.452 95.869,1702.313 95.400,1702.737 91.641 C 1704.114 79.426,1694.237 70.044,1680.000 70.044 C 1669.079 70.044,1661.341 75.041,1660.305 82.762 C 1659.625 87.831,1662.256 93.575,1666.420 96.114 C 1670.670 98.706,1677.948 98.615,1681.365 95.927 C 1686.581 91.824,1683.787 86.500,1676.418 86.500 C 1671.284 86.500,1669.962 85.181,1672.525 82.618 C 1676.427 78.716,1684.892 79.591,1688.352 84.254 C 1690.913 87.704,1690.868 93.354,1688.251 96.884 C 1680.506 107.332,1663.209 105.853,1655.265 94.065 C 1652.608 90.123,1652.196 82.435,1654.415 78.200 C 1656.095 74.993,1661.497 69.759,1665.000 67.945 C 1674.359 63.099,1687.122 62.848,1696.258 67.330 M369.500 67.007 C 395.440 68.455,485.176 71.773,537.000 73.199 C 616.605 75.391,897.104 74.289,943.750 71.602 C 946.638 71.436,949.000 71.398,949.000 71.518 C 949.000 71.638,946.031 73.473,942.403 75.594 C 929.224 83.302,918.700 98.038,915.638 113.072 L 914.328 119.500 891.414 120.318 C 853.178 121.683,588.940 121.594,539.500 120.200 C 462.430 118.026,365.216 114.252,363.802 113.378 C 363.361 113.105,362.991 111.221,362.979 109.191 C 362.951 104.325,358.954 93.161,355.075 87.117 C 351.420 81.421,343.893 73.819,338.255 70.128 C 336.046 68.683,333.398 66.930,332.370 66.233 C 330.345 64.862,331.514 64.886,369.500 67.007 M302.000 68.500 C 303.671 71.622,305.041 71.650,307.887 68.620 C 309.841 66.540,310.604 66.348,313.935 67.097 C 321.124 68.712,322.761 69.745,323.980 73.438 C 325.338 77.555,325.285 77.535,329.055 75.308 C 331.910 73.622,331.938 73.631,337.710 78.136 C 342.950 82.226,343.468 82.971,343.167 85.968 C 342.807 89.556,344.384 91.302,347.194 90.427 C 349.220 89.798,351.322 92.711,354.080 99.969 L 356.021 105.076 353.510 107.403 C 350.051 110.609,350.275 112.905,354.123 113.675 L 357.246 114.299 356.605 120.551 C 355.586 130.499,354.440 132.805,349.907 134.025 C 345.761 135.141,345.006 136.863,347.548 139.405 C 349.544 141.401,348.531 143.334,342.648 148.757 C 338.497 152.583,337.949 152.807,335.230 151.781 C 330.904 150.148,328.622 151.359,329.332 154.912 C 329.866 157.580,329.555 157.945,325.114 159.856 C 322.477 160.990,318.339 162.363,315.919 162.907 C 312.047 163.777,311.253 163.647,309.310 161.821 C 306.747 159.414,304.076 159.992,303.255 163.132 C 302.745 165.083,302.229 165.204,296.857 164.643 C 293.642 164.307,288.962 163.516,286.455 162.884 C 282.649 161.926,281.805 161.274,281.336 158.932 C 280.615 155.325,278.684 154.626,275.827 156.939 C 273.590 158.750,273.474 158.726,268.028 155.284 C 259.655 149.992,255.883 146.087,257.046 143.914 C 259.042 140.185,258.259 138.696,254.615 139.288 C 251.417 139.807,251.089 139.578,248.706 135.169 C 247.318 132.601,245.661 128.537,245.022 126.138 C 243.975 122.198,244.063 121.562,245.931 119.573 C 248.554 116.782,248.538 115.490,245.856 113.612 C 243.993 112.307,243.797 111.494,244.361 107.386 C 245.062 102.266,249.079 92.675,251.765 89.707 C 253.009 88.333,254.258 88.013,256.641 88.460 C 260.478 89.180,261.370 88.103,259.975 84.433 C 258.642 80.927,260.823 78.439,269.098 74.029 L 275.021 70.871 277.645 72.936 C 281.190 75.724,282.845 75.532,283.564 72.250 C 283.896 70.737,284.328 68.970,284.524 68.322 C 284.927 66.997,288.118 66.370,295.581 66.150 C 300.054 66.018,300.822 66.299,302.000 68.500 M1950.593 67.629 C 1955.258 68.190,1955.788 68.525,1956.907 71.621 C 1958.314 75.510,1959.333 75.801,1961.732 73.000 C 1963.955 70.403,1965.021 70.473,1971.283 73.628 C 1980.669 78.357,1982.000 79.664,1982.000 84.156 L 1982.000 88.176 1985.886 87.519 C 1989.760 86.865,1989.783 86.881,1993.305 92.681 C 1997.855 100.173,1998.694 103.449,1996.601 105.542 C 1994.273 107.870,1994.634 109.876,1997.627 111.240 C 2000.217 112.420,2000.247 112.551,1999.729 120.469 C 1999.410 125.336,1998.389 130.371,1997.137 133.250 C 1995.241 137.610,1994.785 138.000,1991.595 138.000 C 1987.433 138.000,1986.219 139.480,1988.402 141.892 C 1989.281 142.863,1990.000 144.169,1990.000 144.794 C 1990.000 146.526,1984.574 152.330,1979.978 155.515 C 1975.927 158.322,1975.838 158.336,1972.886 156.592 C 1968.666 154.099,1966.615 155.135,1967.408 159.360 L 1968.034 162.699 1960.767 164.852 C 1956.770 166.037,1953.075 167.005,1952.555 167.003 C 1952.035 167.001,1950.364 165.806,1948.841 164.348 C 1946.563 162.165,1945.807 161.915,1944.575 162.938 C 1943.751 163.621,1942.788 165.093,1942.434 166.208 C 1941.849 168.051,1941.252 168.174,1935.828 167.560 C 1927.981 166.672,1927.320 166.356,1926.122 162.920 C 1924.971 159.619,1923.481 159.255,1920.854 161.632 C 1919.312 163.027,1918.607 163.080,1915.985 161.994 C 1914.298 161.295,1911.137 159.433,1908.959 157.856 C 1905.867 155.616,1905.000 154.332,1905.000 151.994 C 1905.000 149.265,1904.703 149.000,1901.655 149.000 C 1897.829 149.000,1896.271 147.560,1892.609 140.635 L 1890.036 135.770 1892.018 133.250 C 1894.941 129.534,1894.585 127.067,1891.023 126.355 C 1888.596 125.869,1887.926 125.124,1887.401 122.325 C 1886.781 119.021,1887.483 110.510,1888.620 107.549 C 1888.921 106.764,1890.442 105.842,1892.000 105.500 C 1895.332 104.768,1896.475 102.639,1894.441 100.951 C 1892.071 98.984,1892.792 95.788,1896.798 90.500 C 1900.348 85.815,1900.867 85.500,1905.043 85.500 L 1909.500 85.500 1909.221 81.866 C 1908.971 78.611,1909.330 78.003,1912.651 76.043 C 1914.691 74.840,1918.621 72.996,1921.385 71.946 C 1926.403 70.039,1926.413 70.039,1928.654 72.145 C 1931.392 74.716,1934.000 73.962,1934.000 70.598 C 1934.000 68.676,1934.606 68.041,1936.750 67.716 C 1941.382 67.014,1945.273 66.990,1950.593 67.629 M1905.411 72.409 C 1891.839 81.549,1881.000 100.077,1881.000 114.137 C 1881.000 117.175,1880.521 119.232,1879.750 119.505 C 1879.063 119.748,1857.581 121.756,1832.014 123.967 L 1785.528 127.987 1777.514 120.103 C 1768.004 110.749,1757.158 102.304,1748.258 97.328 C 1742.156 93.915,1741.838 93.558,1742.403 90.735 C 1742.731 89.093,1743.000 86.728,1743.000 85.479 C 1743.000 83.356,1743.535 83.165,1751.250 82.537 C 1755.787 82.169,1781.550 79.884,1808.500 77.460 C 1835.450 75.037,1867.400 72.353,1879.500 71.496 C 1891.600 70.638,1902.175 69.778,1903.000 69.585 C 1903.825 69.391,1905.844 69.180,1907.487 69.116 C 1910.355 69.005,1910.272 69.135,1905.411 72.409 M974.706 75.750 L 976.986 78.500 979.445 75.750 C 982.157 72.717,984.642 72.378,991.501 74.104 C 995.181 75.031,995.992 75.686,996.538 78.172 C 997.353 81.885,999.488 82.773,1002.041 80.463 C 1004.323 78.397,1005.956 78.921,1012.750 83.899 C 1016.345 86.533,1017.000 87.551,1017.000 90.506 C 1017.000 93.790,1017.198 94.000,1020.289 94.000 C 1023.191 94.000,1023.946 94.617,1026.716 99.250 C 1030.757 106.010,1030.986 107.931,1028.176 111.504 C 1026.007 114.261,1025.974 114.508,1027.627 115.716 C 1028.592 116.422,1030.196 117.000,1031.191 117.000 C 1032.727 117.000,1032.999 117.867,1032.994 122.750 C 1032.985 131.961,1031.555 135.662,1027.486 137.005 C 1022.882 138.524,1022.357 139.686,1025.002 142.502 C 1027.531 145.194,1027.273 145.810,1020.601 153.021 C 1016.685 157.253,1016.586 157.296,1013.500 156.055 C 1010.239 154.744,1007.963 156.566,1008.639 159.947 C 1009.174 162.622,1008.833 163.051,1004.360 165.314 C 1001.687 166.667,997.748 168.256,995.606 168.846 C 992.246 169.771,991.370 169.649,989.221 167.959 C 985.870 165.324,985.078 165.477,983.850 169.000 C 982.867 171.821,982.490 172.000,977.542 172.000 C 967.396 172.000,963.029 170.963,962.386 168.403 C 961.402 164.483,959.605 163.737,956.682 166.036 L 954.081 168.082 949.790 165.904 C 947.431 164.706,943.555 162.394,941.179 160.766 C 936.988 157.895,936.878 157.683,937.541 153.757 L 938.225 149.708 934.332 150.331 C 930.494 150.945,930.396 150.880,927.326 145.727 C 925.613 142.852,923.759 138.842,923.205 136.816 C 922.346 133.674,922.477 132.878,924.099 131.411 C 926.732 129.028,926.475 127.131,923.358 125.946 C 920.784 124.967,920.732 124.776,921.317 118.509 C 921.647 114.971,922.949 109.472,924.209 106.288 C 926.333 100.923,926.756 100.477,930.000 100.179 C 934.729 99.745,935.538 98.714,934.023 95.055 C 932.476 91.320,933.070 90.447,941.286 84.381 L 947.071 80.110 950.503 82.134 C 954.650 84.581,956.000 83.952,956.000 79.569 C 956.000 76.436,956.285 76.172,961.250 74.709 C 969.259 72.348,972.064 72.565,974.706 75.750 M1689.541 74.880 C 1694.052 76.928,1698.677 81.863,1699.624 85.637 C 1700.569 89.402,1699.378 96.014,1697.233 98.913 C 1695.072 101.836,1692.107 103.461,1687.000 104.522 L 1683.500 105.249 1687.901 101.327 C 1691.936 97.730,1692.341 96.932,1692.774 91.714 C 1693.317 85.170,1691.855 82.102,1686.696 78.956 C 1680.953 75.454,1671.165 77.348,1668.860 82.407 C 1667.928 84.453,1668.039 85.410,1669.459 87.577 C 1670.976 89.893,1671.699 90.170,1675.061 89.719 C 1677.728 89.361,1679.294 89.649,1680.125 90.651 C 1682.048 92.968,1678.943 95.273,1673.897 95.273 C 1670.280 95.273,1669.138 94.727,1666.319 91.651 C 1662.554 87.543,1661.938 82.961,1664.633 79.114 C 1668.617 73.426,1681.514 71.233,1689.541 74.880 M290.024 89.603 C 278.666 92.655,271.157 99.312,268.384 108.787 C 266.454 115.380,267.200 120.348,271.027 126.381 C 281.368 142.687,308.713 146.482,325.725 133.971 C 331.165 129.970,335.007 122.323,334.978 115.554 C 334.897 96.904,312.014 83.694,290.024 89.603 M1934.156 92.510 C 1925.143 94.503,1919.691 97.437,1914.711 102.977 C 1907.910 110.541,1905.974 121.109,1909.958 128.918 C 1919.818 148.245,1953.307 150.479,1968.425 132.817 C 1986.179 112.075,1963.944 85.924,1934.156 92.510 M1618.409 99.246 C 1622.246 113.047,1631.567 125.040,1643.866 132.000 C 1647.267 133.925,1650.748 135.969,1651.601 136.542 C 1652.718 137.293,1643.412 138.207,1618.326 139.812 C 1544.158 144.555,1458.657 149.931,1440.500 150.992 C 1430.050 151.602,1411.150 152.756,1398.500 153.556 C 1377.692 154.871,1304.234 158.980,1301.289 158.994 C 1300.622 158.997,1299.588 157.088,1298.990 154.750 C 1297.149 147.549,1293.962 140.773,1289.378 134.312 C 1284.236 127.065,1278.486 122.111,1269.882 117.513 L 1263.681 114.201 1271.091 113.591 C 1275.166 113.255,1302.350 111.628,1331.500 109.975 C 1390.053 106.656,1454.904 102.800,1491.000 100.493 C 1503.925 99.667,1518.325 98.762,1523.000 98.481 C 1527.675 98.201,1546.575 97.071,1565.000 95.970 C 1583.425 94.870,1599.625 93.818,1601.000 93.634 C 1602.375 93.450,1606.464 93.232,1610.086 93.150 L 1616.672 93.000 1618.409 99.246 M314.889 97.048 C 321.218 99.770,327.506 106.453,329.016 112.059 C 330.360 117.049,328.534 123.210,324.623 126.885 L 322.296 129.071 322.765 121.766 C 323.219 114.690,323.128 114.323,319.848 110.023 C 312.861 100.863,299.471 97.333,289.271 101.964 C 279.229 106.522,278.282 119.552,287.550 125.625 C 291.271 128.063,299.183 128.046,301.894 125.595 C 306.313 121.598,303.071 116.000,296.337 116.000 C 292.324 116.000,291.272 114.462,293.557 111.937 C 296.403 108.793,303.435 109.281,307.026 112.872 C 311.038 116.884,311.762 120.547,309.406 124.909 C 306.426 130.426,301.784 133.000,294.812 133.000 C 285.086 133.000,276.559 126.935,273.925 118.145 C 271.136 108.835,279.694 98.315,292.734 95.025 C 298.408 93.594,309.137 94.573,314.889 97.048 M970.407 95.970 C 953.637 99.542,941.767 113.941,944.962 126.838 C 949.651 145.769,974.973 154.611,995.213 144.385 C 1009.565 137.134,1015.153 123.548,1008.835 111.265 C 1006.006 105.767,998.684 99.766,992.033 97.497 C 986.415 95.581,975.765 94.829,970.407 95.970 M1950.500 98.356 C 1957.457 100.210,1961.195 102.320,1964.802 106.428 C 1970.002 112.349,1970.293 120.728,1965.501 126.500 L 1963.009 129.500 1963.635 125.235 C 1964.874 116.786,1959.056 107.888,1950.336 104.895 C 1940.561 101.540,1926.945 104.763,1922.906 111.387 C 1920.563 115.229,1920.454 121.267,1922.660 125.001 C 1924.649 128.370,1930.749 132.000,1934.418 132.000 C 1942.076 132.000,1947.312 126.212,1943.483 121.981 C 1942.154 120.513,1940.608 120.098,1937.114 120.271 C 1932.996 120.475,1932.465 120.256,1932.178 118.229 C 1931.921 116.420,1932.619 115.639,1935.608 114.390 C 1943.024 111.292,1951.000 115.876,1951.000 123.237 C 1951.000 129.232,1948.579 132.822,1942.685 135.566 C 1936.168 138.601,1931.845 138.615,1925.500 135.623 C 1917.363 131.785,1914.000 126.858,1914.000 118.773 C 1914.000 107.719,1927.248 97.657,1942.500 97.128 C 1944.150 97.071,1947.750 97.623,1950.500 98.356 M992.015 104.102 C 994.732 105.270,998.715 108.136,1000.866 110.471 C 1007.110 117.244,1007.552 124.518,1002.117 131.028 L 999.249 134.464 999.747 129.286 C 1000.398 122.502,999.629 119.786,995.830 115.459 C 987.019 105.424,970.541 104.223,961.786 112.978 C 958.552 116.213,958.002 117.402,958.015 121.132 C 958.023 123.535,958.592 126.611,959.279 127.970 C 963.687 136.681,981.000 137.616,981.000 129.143 C 981.000 125.231,979.276 124.000,973.800 124.000 C 969.771 124.000,969.000 123.698,969.000 122.122 C 969.000 118.106,975.772 116.042,981.330 118.365 C 990.723 122.289,989.280 135.270,978.993 139.386 C 964.377 145.234,946.837 132.501,950.887 118.983 C 955.195 104.604,975.828 97.139,992.015 104.102 M1752.697 109.188 C 1766.793 118.568,1782.305 133.987,1791.238 147.500 C 1797.896 157.571,1808.000 176.771,1808.000 179.351 C 1808.000 180.368,1805.915 180.902,1800.250 181.338 C 1795.987 181.665,1785.913 182.466,1777.862 183.117 C 1769.811 183.768,1762.564 184.047,1761.757 183.737 C 1760.949 183.427,1758.903 180.718,1757.209 177.716 C 1747.709 160.883,1727.395 144.563,1709.590 139.459 L 1703.679 137.765 1711.306 133.784 C 1720.866 128.794,1731.580 117.917,1736.237 108.473 C 1737.993 104.913,1739.984 102.000,1740.661 102.000 C 1741.339 102.000,1746.755 105.235,1752.697 109.188 M308.128 104.409 C 316.138 107.757,320.000 112.985,320.000 120.482 C 320.000 129.854,316.342 134.039,307.000 135.356 L 302.500 135.991 305.500 133.500 C 307.150 132.131,308.797 131.008,309.161 131.005 C 309.524 131.002,310.809 128.960,312.016 126.467 C 314.545 121.243,314.181 116.771,310.885 112.581 C 306.428 106.915,297.577 105.185,292.694 109.026 C 287.023 113.487,288.954 119.000,296.186 119.000 C 300.728 119.000,302.465 121.456,299.471 123.645 C 295.476 126.566,288.163 124.149,285.517 119.033 C 281.037 110.370,287.280 103.019,299.128 103.006 C 302.223 103.003,306.273 103.634,308.128 104.409 M1595.000 107.396 C 1595.000 108.164,1597.109 110.572,1599.688 112.749 L 1604.375 116.705 1600.688 121.206 C 1597.206 125.454,1595.928 129.000,1597.879 129.000 C 1599.254 129.000,1608.000 118.357,1608.000 116.683 C 1608.000 114.875,1598.357 106.000,1596.392 106.000 C 1595.626 106.000,1595.000 106.628,1595.000 107.396 M1951.071 108.750 C 1958.182 112.352,1961.308 117.420,1960.599 124.196 C 1959.882 131.041,1957.736 134.488,1953.018 136.376 C 1950.786 137.269,1948.181 137.985,1947.230 137.967 C 1945.827 137.940,1945.973 137.541,1948.000 135.856 C 1952.273 132.305,1953.986 128.811,1953.993 123.632 C 1953.999 119.307,1953.567 118.332,1950.118 114.882 C 1946.766 111.531,1945.624 111.000,1941.767 111.000 C 1931.137 111.000,1925.667 116.667,1931.075 122.075 C 1932.765 123.765,1933.879 124.027,1937.073 123.488 C 1940.259 122.949,1941.120 123.150,1941.660 124.557 C 1942.596 126.995,1939.458 129.000,1934.709 129.000 C 1931.597 129.000,1930.107 128.307,1927.400 125.600 C 1924.613 122.813,1924.000 121.443,1924.000 118.001 C 1924.000 107.716,1938.946 102.609,1951.071 108.750 M20.533 108.947 C 19.776 110.172,20.264 111.123,24.346 116.369 L 27.356 120.238 22.428 124.539 C 18.601 127.879,17.765 129.112,18.685 130.056 C 19.611 131.005,20.706 130.606,23.685 128.235 C 25.783 126.565,28.483 124.142,29.685 122.850 L 31.871 120.500 27.386 114.500 C 22.619 108.121,21.569 107.270,20.533 108.947 M1558.403 109.393 C 1557.923 110.644,1558.954 112.397,1561.996 115.496 L 1566.262 119.843 1562.631 124.275 C 1560.634 126.712,1559.000 129.222,1559.000 129.853 C 1559.000 132.609,1562.223 130.558,1566.379 125.157 L 1570.875 119.314 1564.976 113.476 C 1560.043 108.595,1558.966 107.926,1558.403 109.393 M984.101 111.138 C 988.782 112.705,993.709 116.536,995.501 120.002 C 997.662 124.181,997.407 131.819,994.974 135.810 C 992.957 139.119,987.864 142.000,984.032 142.000 C 982.308 142.000,982.590 141.410,985.894 138.106 C 990.856 133.144,992.033 127.748,989.336 122.323 C 986.616 116.852,982.819 114.486,976.900 114.574 C 964.846 114.753,961.752 126.225,973.500 127.176 C 978.198 127.557,978.906 129.799,974.929 131.705 C 971.778 133.216,966.131 131.907,963.565 129.072 C 960.961 126.195,960.379 119.597,962.449 116.437 C 965.944 111.104,976.374 108.551,984.101 111.138 M1525.442 111.093 C 1525.071 111.695,1526.619 114.074,1528.883 116.381 C 1531.148 118.688,1532.996 121.009,1532.990 121.538 C 1532.985 122.067,1531.417 124.467,1529.506 126.871 C 1526.234 130.987,1525.788 133.000,1528.149 133.000 C 1529.281 133.000,1531.532 130.509,1535.647 124.702 L 1538.338 120.905 1532.953 115.452 C 1527.320 109.748,1526.550 109.301,1525.442 111.093 M59.000 113.606 C 59.000 114.489,60.350 116.917,62.000 119.000 C 63.650 121.083,65.004 123.173,65.008 123.644 C 65.013 124.115,62.875 126.377,60.258 128.670 C 56.541 131.929,55.762 133.109,56.696 134.066 C 57.634 135.028,59.196 134.162,63.946 130.047 C 67.276 127.162,70.000 124.570,70.000 124.286 C 70.000 124.003,68.088 121.135,65.750 117.914 C 61.545 112.120,59.000 110.496,59.000 113.606 M1487.000 114.212 C 1487.000 114.879,1488.872 117.332,1491.160 119.663 L 1495.321 123.903 1491.566 128.485 C 1489.282 131.272,1488.044 133.674,1488.406 134.616 C 1489.265 136.853,1490.222 136.186,1495.517 129.661 L 1500.255 123.821 1494.912 118.411 C 1489.731 113.165,1487.000 111.715,1487.000 114.212 M97.533 115.947 C 96.776 117.172,97.265 118.123,101.339 123.360 L 104.342 127.220 99.668 131.700 C 95.279 135.906,94.506 138.000,97.343 138.000 C 98.017 138.000,100.924 135.615,103.803 132.699 L 109.038 127.399 104.432 121.449 C 99.487 115.062,98.544 114.310,97.533 115.947 M1448.442 116.093 C 1448.071 116.695,1449.672 119.128,1452.000 121.500 C 1456.572 126.158,1456.575 126.044,1451.697 132.315 C 1449.628 134.975,1449.047 136.447,1449.778 137.178 C 1451.200 138.600,1452.021 137.954,1457.018 131.477 L 1461.326 125.893 1455.947 120.446 C 1450.320 114.748,1449.550 114.302,1448.442 116.093 M1204.917 117.292 C 1204.688 117.452,1202.622 118.786,1200.326 120.256 C 1186.267 129.256,1177.708 142.175,1174.657 159.000 L 1173.478 165.500 1146.989 166.637 C 1132.420 167.263,1111.271 168.099,1099.992 168.495 L 1079.483 169.216 1073.229 162.179 C 1066.358 154.447,1055.133 145.020,1044.870 138.360 L 1038.239 134.058 1038.741 129.279 C 1039.018 126.651,1039.526 124.201,1039.872 123.835 C 1040.217 123.470,1059.400 122.456,1082.500 121.583 C 1125.536 119.956,1193.348 117.174,1200.500 116.742 C 1204.368 116.508,1205.784 116.684,1204.917 117.292 M1249.652 118.141 C 1250.285 118.659,1251.081 120.189,1251.421 121.541 C 1252.170 124.525,1252.970 124.598,1256.289 121.987 C 1259.290 119.627,1260.631 120.027,1270.748 126.301 L 1276.995 130.176 1276.370 134.088 C 1275.849 137.344,1276.029 138.000,1277.438 138.000 C 1278.369 138.000,1279.968 137.552,1280.992 137.005 C 1282.584 136.152,1283.364 136.829,1286.414 141.705 C 1291.494 149.826,1292.623 153.654,1290.598 155.891 C 1288.275 158.458,1288.638 160.912,1291.500 162.000 C 1292.875 162.523,1293.997 163.524,1293.992 164.225 C 1293.968 168.291,1291.603 179.051,1289.825 183.184 C 1287.859 187.754,1287.556 188.000,1283.877 188.000 C 1279.682 188.000,1278.959 189.361,1281.226 192.990 C 1282.299 194.709,1281.957 195.462,1278.476 199.039 C 1276.289 201.287,1272.988 204.065,1271.139 205.213 C 1267.902 207.223,1267.670 207.236,1264.837 205.563 C 1260.863 203.215,1259.000 204.133,1259.000 208.441 C 1259.000 211.817,1258.810 211.996,1253.750 213.385 C 1243.716 216.138,1243.480 216.140,1240.981 213.480 C 1238.039 210.348,1237.078 210.370,1234.480 213.628 L 1232.384 216.256 1225.942 214.878 C 1220.183 213.646,1219.348 213.155,1218.070 210.250 C 1216.512 206.710,1214.937 206.167,1213.000 208.500 C 1211.166 210.710,1209.935 210.404,1203.223 206.066 C 1198.035 202.712,1197.090 201.643,1196.818 198.816 C 1196.535 195.869,1196.110 195.444,1193.000 195.000 C 1189.890 194.556,1189.126 193.792,1186.140 188.145 L 1182.779 181.790 1184.890 178.935 C 1187.757 175.057,1187.576 174.267,1183.419 172.530 L 1179.837 171.034 1180.551 164.267 C 1181.520 155.075,1182.348 153.299,1186.465 151.579 C 1190.325 149.966,1190.796 148.906,1188.500 147.000 C 1186.235 145.121,1186.629 143.693,1191.026 137.850 C 1194.897 132.706,1195.234 132.500,1199.776 132.500 C 1204.484 132.500,1204.499 132.489,1204.249 129.273 C 1203.950 125.420,1205.896 123.878,1215.426 120.419 C 1221.721 118.134,1221.808 118.131,1223.550 120.055 C 1225.978 122.738,1228.653 122.517,1229.392 119.573 C 1229.727 118.238,1230.789 116.919,1231.751 116.642 C 1234.364 115.889,1248.326 117.058,1249.652 118.141 M1410.380 118.452 C 1409.928 119.629,1411.036 121.480,1413.996 124.496 L 1418.262 128.843 1414.631 133.275 C 1410.906 137.820,1410.297 139.447,1411.938 140.462 C 1413.246 141.270,1423.064 128.905,1422.201 127.536 C 1421.816 126.923,1419.144 124.247,1416.266 121.589 C 1411.904 117.562,1410.922 117.038,1410.380 118.452 M136.000 120.116 C 136.000 120.730,137.566 123.365,139.480 125.972 L 142.959 130.713 138.480 134.911 C 133.681 139.409,132.959 141.014,135.750 140.977 C 137.695 140.951,147.000 132.523,147.000 130.787 C 147.000 128.967,138.864 119.000,137.378 119.000 C 136.620 119.000,136.000 119.502,136.000 120.116 M1372.000 121.212 C 1372.000 121.879,1373.853 124.312,1376.117 126.619 L 1380.234 130.814 1376.592 135.583 C 1373.073 140.192,1372.466 142.500,1374.775 142.500 C 1375.384 142.500,1377.954 139.834,1380.484 136.575 L 1385.085 130.649 1379.827 125.325 C 1374.722 120.156,1372.000 118.726,1372.000 121.212 M384.000 122.486 C 432.058 124.415,477.172 125.984,502.250 126.600 C 518.063 126.988,531.000 127.687,531.000 128.153 C 531.000 128.619,530.496 129.000,529.881 129.000 C 527.425 129.000,516.546 136.551,511.346 141.865 C 505.656 147.679,498.823 160.096,497.514 167.000 C 496.041 174.770,496.901 174.290,485.647 173.624 C 480.066 173.293,468.525 172.766,460.000 172.453 C 451.475 172.139,436.175 171.462,426.000 170.947 C 415.825 170.432,405.854 170.008,403.841 170.005 C 400.512 170.000,399.711 169.393,394.934 163.250 C 388.544 155.032,376.305 143.082,368.050 137.000 L 361.942 132.500 362.531 127.557 C 363.277 121.300,363.503 120.977,366.789 121.485 C 368.280 121.716,376.025 122.166,384.000 122.486 M175.000 123.582 C 175.000 124.452,176.562 127.070,178.472 129.401 L 181.944 133.638 177.472 138.027 C 173.060 142.358,171.810 145.044,174.250 144.954 C 174.938 144.929,178.104 142.542,181.287 139.650 L 187.074 134.392 182.329 128.196 C 177.678 122.122,175.000 120.436,175.000 123.582 M213.368 125.484 C 213.054 126.301,214.451 128.934,216.568 131.518 L 220.324 136.102 215.486 141.015 C 211.470 145.092,210.936 146.038,212.349 146.581 C 213.520 147.030,215.568 145.870,218.907 142.867 C 221.578 140.465,224.016 137.967,224.325 137.315 C 224.929 136.042,217.347 125.427,215.212 124.558 C 214.504 124.270,213.674 124.686,213.368 125.484 M916.122 134.671 C 919.817 149.754,928.239 160.870,942.461 169.434 L 948.143 172.856 943.822 173.385 C 930.797 174.980,715.330 177.424,666.000 176.536 L 623.500 175.771 621.762 168.636 C 620.806 164.711,618.556 158.578,616.762 155.008 C 612.865 147.251,602.725 136.558,595.230 132.300 L 589.960 129.306 718.230 129.176 C 788.778 129.105,860.450 128.652,877.500 128.170 C 894.550 127.688,909.820 127.340,911.433 127.397 C 914.221 127.495,914.452 127.853,916.122 134.671 M1882.656 133.895 C 1886.124 147.480,1897.706 160.879,1912.000 167.841 C 1916.675 170.118,1919.825 171.988,1919.000 171.997 C 1918.175 172.006,1907.150 172.886,1894.500 173.952 C 1846.148 178.026,1816.922 180.252,1816.628 179.883 C 1816.460 179.673,1813.375 173.413,1809.773 165.973 C 1806.171 158.534,1800.663 148.707,1797.533 144.136 C 1794.403 139.565,1792.098 135.569,1792.411 135.256 C 1793.272 134.394,1867.562 128.171,1874.889 128.347 L 1881.279 128.500 1882.656 133.895 M567.918 130.123 C 575.243 131.373,577.000 132.346,577.000 135.154 C 577.000 137.774,579.694 138.587,581.866 136.621 C 584.459 134.274,585.665 134.547,592.562 139.040 C 601.284 144.723,602.375 146.083,600.865 149.397 C 599.199 153.053,600.887 154.828,604.473 153.194 C 606.805 152.132,607.193 152.335,609.508 155.833 C 610.888 157.917,612.881 162.070,613.938 165.061 C 615.834 170.429,615.834 170.527,613.929 172.564 C 611.348 175.327,611.499 176.815,614.500 178.182 C 615.875 178.808,616.997 179.586,616.994 179.911 C 616.957 183.732,614.545 193.265,612.414 198.013 C 609.802 203.832,609.619 204.000,605.863 204.000 C 602.810 204.000,602.000 204.377,602.000 205.800 C 602.000 206.790,602.563 208.178,603.250 208.884 C 604.257 209.918,603.625 210.951,600.001 214.190 C 597.527 216.403,593.772 219.096,591.656 220.175 C 588.310 221.882,587.594 221.953,586.155 220.721 C 582.057 217.213,579.000 218.226,579.000 223.092 C 579.000 226.037,578.184 226.408,568.055 228.067 C 562.709 228.942,562.561 228.900,559.811 225.729 L 557.011 222.500 554.718 225.250 C 552.061 228.436,551.174 228.538,544.178 226.460 C 539.824 225.167,538.762 224.367,537.548 221.460 C 535.951 217.638,534.557 217.186,531.869 219.619 C 530.211 221.119,529.767 221.053,525.790 218.714 C 520.322 215.497,516.786 211.716,517.035 209.351 C 517.415 205.752,516.966 205.123,513.799 204.813 C 510.443 204.485,508.746 202.423,505.565 194.809 C 504.080 191.255,504.113 191.019,506.512 188.168 C 507.881 186.542,509.000 184.916,509.000 184.555 C 509.000 184.193,507.411 183.234,505.469 182.423 L 501.938 180.947 502.618 175.724 C 503.956 165.456,505.222 162.639,508.835 161.900 C 513.310 160.985,513.659 160.386,511.677 157.031 L 509.960 154.124 514.325 148.812 C 518.665 143.531,518.720 143.502,523.845 143.780 L 529.000 144.060 529.000 140.474 C 529.000 137.216,529.389 136.715,533.254 135.006 C 535.594 133.971,539.632 132.556,542.227 131.862 C 546.631 130.684,547.101 130.746,549.287 132.800 C 552.421 135.744,553.604 135.574,554.850 132.000 C 556.056 128.542,557.464 128.339,567.918 130.123 M366.000 144.543 C 374.294 150.862,390.082 167.784,395.945 176.641 C 398.807 180.963,403.323 189.000,405.981 194.500 C 410.651 204.163,417.000 221.522,417.000 224.629 C 417.000 225.917,415.538 226.060,407.250 225.587 C 401.887 225.280,391.369 224.755,383.875 224.419 L 370.250 223.809 365.596 214.433 C 356.143 195.390,340.061 179.602,322.227 171.856 L 317.500 169.803 324.322 167.480 C 336.980 163.170,349.733 153.315,355.679 143.250 C 358.457 138.547,358.065 138.498,366.000 144.543 M854.403 141.392 C 853.934 142.614,854.828 144.263,857.366 146.863 C 859.365 148.910,861.000 151.221,861.000 152.000 C 861.000 152.779,859.365 155.090,857.366 157.137 C 854.754 159.813,853.928 161.370,854.429 162.675 C 855.023 164.223,855.930 163.655,860.563 158.834 C 863.553 155.722,866.000 152.558,866.000 151.804 C 866.000 151.049,863.542 148.004,860.537 145.037 C 855.956 140.512,854.966 139.924,854.403 141.392 M892.000 141.212 C 892.000 141.879,893.866 144.325,896.146 146.649 L 900.292 150.873 896.073 155.913 C 892.300 160.419,891.531 163.000,893.960 163.000 C 894.423 163.000,897.166 160.272,900.055 156.937 L 905.307 150.874 899.938 145.437 C 894.734 140.167,892.000 138.712,892.000 141.212 M1222.405 141.611 C 1211.226 145.032,1202.374 154.981,1201.306 165.323 C 1199.524 182.591,1219.785 196.145,1241.365 192.119 C 1257.413 189.126,1268.000 178.533,1268.000 165.471 C 1268.000 155.745,1262.557 148.163,1252.000 143.180 C 1245.051 139.900,1230.513 139.129,1222.405 141.611 M776.447 142.086 C 776.077 142.684,777.087 144.596,778.690 146.336 C 784.750 152.915,784.702 152.539,780.165 157.919 C 776.804 161.905,776.301 163.005,777.416 163.930 C 778.495 164.826,779.845 163.854,783.876 159.281 C 786.679 156.101,788.978 153.199,788.986 152.831 C 789.007 151.818,778.924 141.000,777.959 141.000 C 777.496 141.000,776.816 141.489,776.447 142.086 M816.000 142.804 C 816.000 143.796,817.575 146.134,819.500 148.000 C 821.425 149.866,823.000 151.812,823.000 152.325 C 823.000 152.838,821.425 155.001,819.500 157.132 C 815.947 161.064,814.980 164.010,817.250 163.987 C 818.797 163.972,828.279 153.300,827.828 152.083 C 827.232 150.477,817.939 141.000,816.960 141.000 C 816.432 141.000,816.000 141.812,816.000 142.804 M699.000 143.212 C 699.000 143.879,700.864 146.324,703.143 148.646 L 707.286 152.868 703.143 157.575 C 698.589 162.749,698.120 164.006,700.750 163.987 C 701.712 163.980,704.664 161.507,707.310 158.491 L 712.119 153.007 706.915 147.503 C 701.919 142.221,699.000 140.638,699.000 143.212 M737.508 142.988 C 737.172 143.531,738.933 146.152,741.421 148.812 L 745.945 153.648 741.972 157.527 C 738.413 161.002,736.708 165.000,738.784 165.000 C 739.802 165.000,750.000 154.681,750.000 153.652 C 750.000 152.244,740.653 142.000,739.368 142.000 C 738.681 142.000,737.843 142.445,737.508 142.988 M1044.295 146.895 C 1064.062 160.326,1079.550 178.204,1090.777 200.551 C 1094.834 208.624,1100.000 220.692,1100.000 222.093 C 1100.000 223.071,1091.325 223.797,1070.835 224.532 L 1054.171 225.130 1050.412 218.409 C 1039.725 199.298,1020.819 183.247,1001.686 177.040 L 997.872 175.803 1007.061 171.311 C 1017.914 166.005,1027.758 156.893,1032.511 147.752 C 1034.155 144.591,1035.858 142.004,1036.295 142.002 C 1036.732 142.001,1040.332 144.203,1044.295 146.895 M1705.500 146.008 C 1724.814 152.137,1740.856 164.589,1750.902 181.250 C 1753.581 185.694,1753.748 185.596,1742.047 186.458 C 1707.302 189.018,1678.018 191.090,1664.000 191.980 C 1589.195 196.732,1550.254 199.257,1525.000 200.994 C 1488.481 203.506,1426.640 206.973,1426.200 206.533 C 1426.020 206.354,1427.645 202.673,1429.811 198.353 C 1434.575 188.849,1438.430 178.386,1441.363 167.000 L 1443.552 158.500 1455.026 157.808 C 1461.337 157.427,1473.700 156.630,1482.500 156.038 C 1491.300 155.445,1519.425 153.625,1545.000 151.993 C 1619.521 147.238,1654.828 144.885,1665.000 143.996 C 1680.751 142.619,1697.433 143.448,1705.500 146.008 M1250.620 149.274 C 1259.822 153.997,1264.215 161.773,1262.106 169.605 C 1261.510 171.819,1259.957 174.631,1258.654 175.855 L 1256.286 178.080 1256.764 173.106 C 1257.725 163.107,1250.739 154.816,1238.975 151.994 C 1222.047 147.933,1207.780 163.266,1217.613 174.952 C 1224.712 183.389,1242.308 179.224,1236.569 170.465 C 1235.064 168.167,1234.397 167.926,1231.099 168.483 C 1228.251 168.964,1227.007 168.713,1225.954 167.444 C 1223.829 164.884,1227.925 162.000,1233.688 162.000 C 1242.197 162.000,1246.783 170.481,1242.340 178.001 C 1235.730 189.191,1215.118 186.638,1208.411 173.800 C 1203.511 164.421,1211.202 151.668,1224.346 147.376 C 1231.197 145.138,1244.425 146.094,1250.620 149.274 M548.389 153.570 C 537.805 155.731,529.868 161.404,525.402 170.000 C 523.013 174.598,522.965 184.340,525.309 188.734 C 532.960 203.073,554.633 209.691,572.148 203.036 C 580.130 200.003,584.698 196.455,587.971 190.749 C 599.878 169.987,576.327 147.867,548.389 153.570 M1243.267 156.600 C 1252.744 161.389,1256.264 169.646,1252.584 178.454 C 1250.869 182.558,1247.515 184.911,1242.356 185.627 L 1238.500 186.162 1240.787 184.299 C 1244.967 180.894,1246.986 176.772,1246.993 171.632 C 1246.999 167.307,1246.567 166.332,1243.118 162.882 C 1239.745 159.510,1238.638 159.000,1234.683 159.000 C 1228.848 159.000,1225.507 160.296,1223.518 163.333 C 1222.212 165.326,1222.144 166.222,1223.137 168.401 C 1224.389 171.150,1226.461 171.970,1231.402 171.674 C 1232.999 171.578,1234.481 172.010,1234.697 172.634 C 1235.366 174.569,1232.012 177.000,1228.679 176.996 C 1220.983 176.987,1215.034 168.796,1218.132 162.473 C 1221.871 154.840,1234.121 151.978,1243.267 156.600 M118.000 160.017 C 130.925 161.105,146.900 162.446,153.500 162.997 C 172.665 164.596,266.264 171.114,290.500 172.537 C 320.033 174.270,344.132 189.521,357.997 215.250 L 362.174 223.000 355.837 222.996 C 343.786 222.990,240.610 216.892,203.500 213.994 C 196.350 213.436,178.350 212.070,163.500 210.960 C 132.523 208.644,60.703 202.037,60.115 201.448 C 59.898 201.231,60.475 200.029,61.397 198.777 C 68.530 189.090,77.454 174.433,81.057 166.489 L 85.369 156.980 89.935 157.509 C 92.446 157.800,105.075 158.928,118.000 160.017 M569.500 160.835 C 576.849 163.282,584.611 171.222,585.509 177.210 C 586.260 182.220,584.090 187.824,579.974 191.500 L 577.734 193.500 578.320 191.500 C 579.938 185.970,580.055 183.914,578.977 179.884 C 577.443 174.149,571.156 168.105,564.139 165.619 C 554.673 162.265,542.628 165.281,538.660 171.999 C 535.124 177.984,537.837 187.313,544.047 190.524 C 550.223 193.718,560.000 191.483,560.000 186.878 C 560.000 182.630,558.179 181.000,553.433 181.000 C 546.241 181.000,546.246 175.795,553.439 174.445 C 560.097 173.196,567.007 178.678,566.996 185.200 C 566.987 191.203,560.088 196.785,551.479 197.755 C 546.149 198.356,538.017 194.922,534.038 190.390 C 525.704 180.898,528.537 169.380,540.854 162.676 C 549.206 158.130,559.411 157.475,569.500 160.835 M1435.381 161.750 C 1431.117 179.586,1423.883 196.441,1414.331 210.797 C 1407.445 221.146,1392.282 237.131,1382.009 244.872 C 1372.897 251.739,1357.817 259.632,1345.642 263.909 L 1336.784 267.020 1286.642 269.478 C 1259.064 270.830,1226.375 272.403,1214.000 272.975 C 1201.625 273.546,1187.225 274.246,1182.000 274.531 C 1171.967 275.078,1085.654 278.531,1058.500 279.472 C 1049.700 279.777,1036.200 280.259,1028.500 280.543 C 946.586 283.571,715.034 287.391,688.060 286.161 L 680.621 285.821 689.026 281.870 C 706.223 273.787,727.539 257.190,737.502 244.126 L 741.181 239.302 805.340 238.615 C 840.628 238.237,873.100 237.731,877.500 237.491 C 881.900 237.250,901.475 236.803,921.000 236.496 C 940.525 236.189,960.550 235.736,965.500 235.490 C 970.450 235.244,984.850 234.785,997.500 234.470 C 1029.003 233.687,1168.717 228.348,1205.500 226.522 C 1222.000 225.703,1240.675 224.793,1247.000 224.499 C 1309.027 221.624,1320.209 220.865,1327.336 219.042 C 1354.844 212.007,1375.671 194.427,1386.977 168.700 L 1390.250 161.255 1407.375 160.295 C 1416.794 159.767,1427.096 159.260,1430.269 159.168 L 1436.038 159.000 1435.381 161.750 M1380.471 165.750 C 1374.254 180.736,1360.064 196.161,1345.000 204.310 C 1332.068 211.304,1324.230 212.977,1297.000 214.551 C 1264.123 216.451,1266.398 216.682,1273.500 212.162 C 1286.728 203.743,1297.023 188.531,1299.256 174.104 L 1300.340 167.101 1305.420 166.595 C 1310.634 166.076,1370.111 162.422,1377.763 162.151 L 1382.027 162.000 1380.471 165.750 M566.728 169.861 C 571.455 172.273,574.411 175.684,576.033 180.601 C 577.631 185.441,575.694 193.309,572.236 196.029 C 569.673 198.045,568.541 198.416,562.000 199.388 C 558.992 199.835,558.765 199.739,560.384 198.704 C 567.806 193.960,570.741 188.765,569.559 182.464 C 568.084 174.598,559.630 169.596,551.785 171.946 C 546.868 173.420,544.284 177.133,545.824 180.513 C 546.946 182.976,550.880 184.644,553.338 183.700 C 554.077 183.417,555.316 183.581,556.091 184.064 C 558.679 185.678,555.751 188.466,551.108 188.809 C 547.460 189.079,546.472 188.672,543.459 185.659 C 534.899 177.099,542.840 166.450,557.072 167.404 C 560.137 167.610,564.482 168.715,566.728 169.861 M1175.647 179.227 C 1179.042 194.232,1190.313 207.741,1205.986 215.594 C 1209.004 217.106,1211.029 218.478,1210.486 218.643 C 1209.613 218.909,1115.287 223.000,1110.025 223.000 C 1108.877 223.000,1107.668 222.213,1107.338 221.250 C 1104.527 213.038,1096.947 196.641,1092.027 188.128 C 1088.731 182.423,1086.233 177.432,1086.477 177.037 C 1086.721 176.642,1095.826 176.019,1106.711 175.653 C 1117.595 175.287,1135.050 174.704,1145.500 174.358 C 1155.950 174.011,1164.708 173.543,1164.963 173.318 C 1165.217 173.092,1167.434 173.041,1169.889 173.204 L 1174.352 173.500 1175.647 179.227 M462.500 180.094 C 480.100 180.748,494.810 181.556,495.190 181.891 C 495.569 182.226,496.545 185.703,497.358 189.617 C 498.172 193.531,500.284 199.601,502.053 203.105 C 506.063 211.050,516.203 221.328,525.000 226.367 L 531.500 230.090 517.500 229.530 C 509.800 229.222,488.875 228.529,471.000 227.988 C 453.125 227.448,435.532 226.740,431.904 226.417 L 425.308 225.828 421.120 213.135 C 418.817 206.153,414.481 195.504,411.485 189.471 C 408.489 183.437,406.029 178.318,406.019 178.096 C 406.008 177.873,411.512 177.965,418.250 178.298 C 424.988 178.632,444.900 179.440,462.500 180.094 M993.250 182.434 C 1007.710 186.308,1020.362 193.657,1030.700 204.186 C 1036.923 210.524,1046.302 223.702,1045.506 224.991 C 1045.272 225.369,1033.025 225.985,1018.290 226.360 C 1003.556 226.734,977.325 227.456,960.000 227.964 C 887.871 230.081,749.037 232.370,748.124 231.457 C 747.828 231.161,748.376 229.700,749.342 228.210 C 753.647 221.565,762.971 201.502,765.580 193.266 L 768.443 184.232 820.971 183.493 C 849.862 183.087,894.650 182.213,920.500 181.551 C 974.509 180.168,985.281 180.298,993.250 182.434 M2013.402 184.159 C 2012.980 184.841,2014.395 186.911,2016.843 189.195 C 2019.129 191.327,2021.000 193.354,2021.000 193.699 C 2021.000 194.043,2019.602 196.503,2017.894 199.165 C 2015.090 203.536,2014.494 208.049,2016.919 206.550 C 2018.097 205.822,2026.000 194.036,2026.000 193.008 C 2026.000 192.202,2015.563 183.000,2014.650 183.000 C 2014.357 183.000,2013.796 183.521,2013.402 184.159 M706.000 185.162 C 706.000 187.161,700.932 195.227,695.420 202.000 C 686.080 213.477,673.833 221.751,658.311 227.068 L 648.500 230.429 622.500 230.789 C 608.200 230.986,594.250 231.002,591.500 230.824 L 586.500 230.500 592.000 227.783 C 607.802 219.976,619.773 204.444,622.468 188.250 L 623.176 184.000 664.588 184.000 C 695.381 184.000,706.000 184.298,706.000 185.162 M1987.442 186.093 C 1987.071 186.695,1988.619 189.074,1990.883 191.381 C 1993.148 193.688,1994.987 196.009,1994.972 196.538 C 1994.957 197.067,1993.607 199.268,1991.972 201.428 C 1988.716 205.731,1988.197 208.000,1990.468 208.000 C 1991.870 208.000,2000.000 197.985,2000.000 196.259 C 2000.000 195.287,1989.746 185.000,1988.778 185.000 C 1988.415 185.000,1987.814 185.492,1987.442 186.093 M1950.000 190.212 C 1950.000 190.879,1951.851 193.311,1954.114 195.616 L 1958.228 199.808 1955.114 204.334 C 1953.401 206.824,1952.000 209.567,1952.000 210.430 C 1952.000 213.670,1954.636 211.752,1958.715 205.542 L 1962.929 199.126 1957.715 194.075 C 1952.591 189.113,1950.000 187.815,1950.000 190.212 M1911.444 193.091 C 1911.071 193.693,1912.619 196.074,1914.883 198.381 C 1917.148 200.688,1919.000 202.928,1919.000 203.358 C 1919.000 203.788,1917.650 206.102,1916.000 208.500 C 1912.716 213.273,1912.279 215.000,1914.355 215.000 C 1915.100 215.000,1917.631 212.261,1919.979 208.914 L 1924.248 202.828 1919.874 198.337 C 1914.640 192.964,1912.389 191.562,1911.444 193.091 M1856.667 196.667 C 1855.378 197.955,1856.041 199.093,1860.519 203.277 L 1865.038 207.500 1861.519 212.711 C 1857.678 218.397,1857.226 220.000,1859.463 220.000 C 1860.865 220.000,1869.000 209.081,1869.000 207.200 C 1869.000 206.348,1858.584 196.000,1857.727 196.000 C 1857.510 196.000,1857.033 196.300,1856.667 196.667 M1873.000 197.292 C 1873.000 198.002,1875.007 200.554,1877.461 202.961 L 1881.921 207.339 1878.461 212.054 C 1874.708 217.166,1874.182 219.000,1876.468 219.000 C 1878.203 219.000,1886.000 209.005,1886.000 206.781 C 1886.000 205.134,1875.910 196.000,1874.091 196.000 C 1873.491 196.000,1873.000 196.581,1873.000 197.292 M1819.295 200.672 C 1818.839 201.861,1820.041 203.549,1823.447 206.503 L 1828.240 210.661 1824.620 215.700 C 1820.755 221.081,1820.165 223.000,1822.380 223.000 C 1823.989 223.000,1832.000 212.748,1832.000 210.688 C 1832.000 209.378,1821.815 199.000,1820.528 199.000 C 1820.203 199.000,1819.648 199.753,1819.295 200.672 M1785.688 203.371 C 1785.390 204.146,1787.065 206.611,1789.542 209.041 L 1793.921 213.339 1790.361 218.189 C 1787.135 222.584,1786.463 226.000,1788.824 226.000 C 1789.815 226.000,1798.000 214.678,1798.000 213.307 C 1798.000 212.332,1787.789 202.000,1786.826 202.000 C 1786.489 202.000,1785.977 202.617,1785.688 203.371 M1318.000 234.212 C 1318.000 234.879,1319.875 237.335,1322.167 239.670 L 1326.333 243.915 1322.667 248.622 C 1320.650 251.210,1319.000 253.929,1319.000 254.664 C 1319.000 257.491,1321.690 255.746,1326.362 249.887 L 1331.224 243.790 1325.896 238.395 C 1320.729 233.163,1318.000 231.717,1318.000 234.212 M1279.432 236.110 C 1279.050 236.728,1280.773 239.247,1283.316 241.789 L 1287.886 246.359 1283.801 251.238 C 1280.614 255.045,1279.983 256.378,1280.928 257.308 C 1281.871 258.235,1283.228 257.278,1287.038 253.000 C 1289.732 249.975,1291.951 246.798,1291.968 245.941 C 1291.996 244.598,1282.045 235.000,1280.626 235.000 C 1280.347 235.000,1279.809 235.499,1279.432 236.110 M1240.479 238.035 C 1240.127 238.604,1241.932 240.991,1244.491 243.340 L 1249.142 247.611 1245.071 252.537 C 1240.674 257.858,1240.402 258.513,1242.145 259.589 C 1243.373 260.349,1251.476 251.836,1252.569 248.639 C 1253.034 247.280,1251.905 245.457,1248.390 241.889 C 1243.582 237.007,1241.685 236.083,1240.479 238.035 M1202.201 239.199 C 1201.245 240.155,1201.982 241.429,1205.637 245.139 L 1210.290 249.863 1206.162 254.554 C 1202.238 259.011,1201.666 261.001,1204.309 261.000 C 1205.842 260.999,1214.000 251.555,1214.000 249.780 C 1214.000 249.039,1211.619 246.080,1208.709 243.207 C 1204.553 239.102,1203.157 238.243,1202.201 239.199 M1163.442 241.093 C 1163.071 241.695,1164.619 244.074,1166.883 246.381 C 1169.148 248.688,1171.000 250.937,1171.000 251.379 C 1171.000 251.821,1169.425 254.022,1167.500 256.271 C 1163.814 260.578,1163.060 263.000,1165.407 263.000 C 1166.648 263.000,1173.313 255.801,1175.449 252.152 C 1175.983 251.241,1174.509 249.054,1170.904 245.402 C 1165.320 239.748,1164.549 239.303,1163.442 241.093 M1124.465 243.057 C 1124.041 243.743,1125.612 246.086,1128.297 248.771 L 1132.848 253.322 1128.748 258.184 C 1125.485 262.054,1124.902 263.298,1125.894 264.274 C 1126.883 265.247,1128.152 264.364,1132.038 260.000 C 1134.732 256.975,1136.951 253.981,1136.968 253.347 C 1136.999 252.226,1127.767 242.803,1126.044 242.197 C 1125.571 242.031,1124.860 242.418,1124.465 243.057 M440.000 248.022 C 440.000 248.585,441.876 251.080,444.168 253.567 L 448.337 258.089 443.462 263.038 C 439.613 266.947,438.845 268.245,439.814 269.214 C 440.782 270.182,442.314 269.166,447.097 264.383 L 453.155 258.325 448.327 252.693 C 443.959 247.595,440.000 245.375,440.000 248.022 M479.547 248.925 C 479.232 249.433,480.781 251.936,482.987 254.486 C 485.194 257.035,487.000 259.453,487.000 259.858 C 487.000 260.263,485.200 262.352,483.000 264.500 C 478.977 268.429,477.902 271.000,480.284 271.000 C 480.990 271.000,483.965 268.573,486.894 265.607 C 492.867 259.559,492.879 259.793,486.229 252.612 C 481.925 247.964,480.594 247.229,479.547 248.925 M518.515 249.975 C 518.184 250.511,519.732 252.924,521.956 255.337 C 524.180 257.750,526.000 260.106,526.000 260.574 C 526.000 261.042,524.108 263.352,521.796 265.708 C 518.503 269.064,517.854 270.254,518.804 271.204 C 519.753 272.153,521.206 271.241,525.508 266.992 C 528.529 264.009,531.000 261.184,531.000 260.713 C 531.000 259.313,521.601 249.026,520.309 249.013 C 519.654 249.006,518.847 249.439,518.515 249.975 M558.000 251.212 C 558.000 251.879,559.894 254.354,562.208 256.712 L 566.416 261.000 562.208 265.288 C 558.428 269.140,556.712 273.000,558.781 273.000 C 559.211 273.000,562.205 270.330,565.435 267.066 L 571.306 261.132 566.403 255.621 C 561.806 250.454,558.000 248.457,558.000 251.212 M597.357 251.511 C 596.934 252.615,598.143 254.589,601.073 257.574 L 605.416 262.000 601.073 266.426 C 597.971 269.586,596.922 271.354,597.403 272.607 C 597.966 274.074,599.046 273.402,603.991 268.509 C 607.595 264.942,609.632 262.180,609.203 261.439 C 608.253 259.797,600.429 251.383,599.071 250.544 C 598.474 250.175,597.703 250.610,597.357 251.511 M636.442 252.093 C 636.071 252.695,637.619 255.074,639.883 257.381 C 642.148 259.688,644.000 261.992,644.000 262.500 C 644.000 263.008,642.108 265.352,639.796 267.708 C 636.503 271.064,635.854 272.254,636.804 273.204 C 637.753 274.153,639.206 273.241,643.508 268.992 C 646.529 266.009,649.000 263.088,649.000 262.500 C 649.000 261.361,638.889 251.000,637.778 251.000 C 637.415 251.000,636.814 251.492,636.442 252.093 " stroke="none" fill="rgb(2, 73, 47)" fill-rule="evenodd"/></svg>