<svg id="svg" version="1.1" width="1120" height="928" xmlns="http://www.w3.org/2000/svg"><path d="M405.534 269.750 C 404.346 279.563,392.002 367.340,391.393 370.303 L 390.818 373.105 396.649 372.803 L 402.480 372.500 403.272 367.000 C 403.708 363.975,406.513 343.324,409.506 321.110 C 412.499 298.895,415.116 280.550,415.323 280.344 C 415.529 280.138,420.142 287.289,425.575 296.235 C 431.008 305.181,440.751 321.004,447.227 331.397 C 453.703 341.790,459.504 352.140,460.117 354.397 C 460.742 356.698,460.995 361.684,460.693 365.750 L 460.154 373.000 464.955 373.000 C 470.587 373.000,471.605 372.045,472.418 366.000 C 472.750 363.525,475.943 340.470,479.511 314.766 C 483.080 289.062,486.000 267.125,486.000 266.016 C 486.000 264.246,485.347 264.000,480.656 264.000 L 475.311 264.000 470.578 298.250 C 467.975 317.087,465.532 333.777,465.151 335.337 C 464.400 338.408,462.384 335.374,432.709 286.500 C 426.698 276.600,420.851 267.488,419.716 266.250 C 418.037 264.420,416.585 264.000,411.941 264.000 L 406.230 264.000 405.534 269.750 M513.007 272.750 C 512.346 277.563,508.926 301.750,505.406 326.500 C 501.885 351.250,499.004 371.837,499.003 372.250 C 499.001 372.663,512.900 373.000,529.889 373.000 C 563.877 373.000,564.095 372.962,565.566 366.750 L 566.217 364.000 539.108 364.000 L 512.000 364.000 512.067 361.250 C 512.104 359.738,513.341 350.400,514.817 340.500 L 517.500 322.500 540.638 322.232 C 563.628 321.965,563.780 321.949,564.374 319.732 C 564.703 318.504,564.979 316.488,564.986 315.250 L 565.000 313.000 542.000 313.000 C 522.548 313.000,519.000 312.776,519.000 311.546 C 519.000 310.747,520.125 302.132,521.500 292.402 C 522.875 282.671,524.000 274.550,524.000 274.355 C 524.000 274.160,536.141 274.000,550.981 274.000 L 577.962 274.000 578.481 271.500 C 578.766 270.125,579.234 267.875,579.519 266.500 L 580.038 264.000 547.122 264.000 L 514.207 264.000 513.007 272.750 M591.398 276.250 C 592.449 295.161,595.643 321.550,600.018 347.482 C 602.208 360.463,604.000 371.516,604.000 372.042 C 604.000 372.569,607.102 373.000,610.893 373.000 L 617.786 373.000 622.507 362.250 C 629.493 346.341,644.147 310.977,648.605 299.269 C 650.747 293.642,652.741 289.030,653.035 289.019 C 653.329 289.009,654.790 299.462,656.280 312.250 C 658.687 332.891,662.926 362.529,664.582 370.294 C 665.170 373.051,665.265 373.083,671.832 372.794 L 678.487 372.500 686.287 354.500 C 697.865 327.783,708.128 301.598,714.414 282.741 C 717.486 273.523,720.000 265.512,720.000 264.938 C 720.000 264.311,717.965 264.016,714.897 264.198 L 709.794 264.500 703.524 283.500 C 700.076 293.950,694.944 308.255,692.118 315.289 C 685.848 330.902,675.153 355.198,674.056 356.323 C 673.615 356.776,672.987 356.086,672.662 354.789 C 672.118 352.621,665.564 307.081,661.424 276.699 L 659.680 263.898 656.252 264.199 L 652.824 264.500 646.323 280.500 C 621.987 340.399,614.160 358.051,612.926 355.812 C 612.094 354.302,606.635 320.858,605.041 307.500 C 603.925 298.154,602.024 272.920,602.009 267.250 L 602.000 264.000 596.358 264.000 L 590.717 264.000 591.398 276.250 M673.751 416.929 C 666.960 417.877,662.078 422.875,659.192 431.837 C 656.382 440.562,656.376 442.216,659.157 441.813 C 660.343 441.641,661.518 442.099,661.768 442.832 C 662.050 443.662,661.521 444.089,660.361 443.966 C 656.850 443.595,656.000 444.003,656.000 446.059 C 656.000 447.191,656.337 447.913,656.750 447.662 C 657.163 447.411,657.569 448.981,657.653 451.151 C 657.755 453.776,658.508 455.706,659.903 456.916 C 661.056 457.916,662.000 459.255,662.000 459.892 C 662.000 460.529,663.013 461.484,664.250 462.016 C 665.487 462.547,667.625 463.869,669.000 464.954 C 670.375 466.038,672.720 467.075,674.212 467.258 C 675.704 467.441,677.237 467.904,677.620 468.287 C 678.003 468.670,678.867 468.525,679.541 467.966 C 680.409 467.246,680.944 467.413,681.376 468.538 C 681.727 469.451,682.490 469.815,683.171 469.394 C 683.823 468.991,686.639 468.573,689.428 468.464 C 695.369 468.233,697.306 467.807,699.149 466.327 C 699.892 465.730,702.328 464.322,704.561 463.197 C 709.337 460.792,713.531 455.147,714.807 449.409 C 716.708 440.856,711.027 427.529,702.682 420.964 C 696.909 416.423,687.146 415.062,673.751 416.929 M450.691 422.642 C 450.350 422.983,447.849 423.213,445.133 423.152 C 442.417 423.090,437.606 423.931,434.441 425.020 C 431.276 426.109,427.839 427.000,426.802 427.000 C 425.765 427.000,422.123 428.291,418.708 429.870 C 415.294 431.448,410.727 433.059,408.561 433.451 C 405.925 433.926,403.585 435.293,401.490 437.581 C 399.450 439.808,397.444 441.000,395.735 441.000 C 393.907 441.000,391.293 442.740,387.100 446.750 C 383.793 449.913,380.366 453.104,379.486 453.843 C 377.285 455.690,377.979 459.426,380.594 459.799 C 382.022 460.003,383.549 458.969,385.397 456.546 C 386.920 454.550,391.368 451.203,395.549 448.909 C 399.642 446.662,403.244 444.414,403.554 443.912 C 403.864 443.411,404.795 443.000,405.623 443.000 C 406.451 443.000,409.462 441.940,412.314 440.644 C 415.166 439.349,419.300 437.984,421.500 437.611 C 428.052 436.502,435.430 434.674,436.503 433.894 C 438.166 432.685,456.079 431.032,462.500 431.495 C 465.800 431.733,472.679 432.170,477.786 432.466 C 482.893 432.761,488.518 433.607,490.286 434.345 C 492.054 435.082,495.243 436.013,497.373 436.411 C 499.503 436.810,501.978 437.502,502.873 437.948 C 503.768 438.394,506.975 439.554,510.000 440.527 C 513.025 441.500,516.110 442.775,516.857 443.359 C 518.613 444.735,522.095 446.761,524.000 447.516 C 524.825 447.842,526.625 448.754,528.000 449.541 C 529.375 450.329,532.367 451.880,534.649 452.989 C 539.404 455.299,553.869 468.045,555.782 471.611 C 556.487 472.925,557.655 474.000,558.377 474.000 C 559.099 474.000,560.546 474.946,561.593 476.102 C 562.639 477.259,564.840 478.900,566.483 479.750 C 568.127 480.600,572.403 483.910,575.986 487.107 C 589.309 498.994,590.523 499.998,591.570 499.999 C 592.159 500.000,594.409 501.493,596.570 503.319 C 598.732 505.144,602.750 508.145,605.500 509.989 C 608.250 511.833,612.180 514.832,614.234 516.653 C 616.287 518.475,620.839 521.267,624.348 522.858 C 627.857 524.450,631.041 526.257,631.423 526.876 C 631.805 527.494,633.033 528.000,634.151 528.000 C 635.270 528.000,637.329 528.900,638.727 530.000 C 640.126 531.100,642.046 532.000,642.995 532.000 C 643.944 532.000,646.261 533.045,648.143 534.322 C 651.605 536.672,660.357 539.426,669.500 541.042 C 672.250 541.528,676.075 542.363,678.000 542.897 C 692.060 546.798,694.551 547.087,710.753 546.686 C 724.050 546.358,727.360 545.984,728.843 544.642 C 729.929 543.659,732.371 543.000,734.928 543.000 C 739.653 543.000,745.541 540.639,746.400 538.400 C 747.087 536.610,743.620 532.992,741.250 533.024 C 740.288 533.037,737.700 533.536,735.500 534.132 C 718.636 538.704,687.804 538.111,675.500 532.978 C 674.400 532.519,671.755 531.855,669.622 531.503 C 667.488 531.150,663.213 529.734,660.122 528.356 C 657.030 526.979,651.125 524.750,647.000 523.404 C 642.875 522.058,638.267 520.056,636.760 518.955 C 635.253 517.855,630.906 515.392,627.100 513.482 C 620.758 510.299,617.885 508.340,613.032 503.887 C 612.065 503.000,608.850 500.975,605.887 499.387 C 602.924 497.799,598.108 494.137,595.185 491.250 C 592.261 488.363,589.644 486.000,589.368 486.000 C 587.543 486.000,552.632 456.691,545.076 448.815 C 541.967 445.575,535.349 441.000,533.771 441.000 C 533.144 441.000,530.802 440.142,528.566 439.094 C 526.330 438.046,520.062 435.115,514.639 432.580 C 505.479 428.300,493.901 425.063,488.000 425.133 C 486.625 425.149,483.475 424.617,481.000 423.950 C 476.199 422.657,451.732 421.601,450.691 422.642 M581.000 452.053 C 581.000 453.634,586.329 460.000,587.651 460.000 C 588.284 460.000,589.721 461.557,590.844 463.461 C 591.967 465.364,595.162 468.556,597.943 470.555 C 600.724 472.553,603.000 474.618,603.000 475.145 C 603.000 475.671,604.498 476.728,606.330 477.493 C 608.161 478.258,610.241 479.585,610.952 480.442 C 612.365 482.145,616.541 482.551,617.454 481.075 C 618.667 479.112,615.639 475.291,609.861 471.491 C 606.547 469.313,603.536 467.045,603.168 466.452 C 602.801 465.859,599.511 463.260,595.858 460.676 C 592.205 458.093,588.482 454.858,587.585 453.489 C 585.950 450.993,581.000 449.914,581.000 452.053 M445.500 461.594 C 441.650 462.368,435.800 464.433,432.500 466.183 C 424.914 470.206,416.322 475.669,415.507 476.988 C 414.037 479.368,416.345 479.728,421.485 477.921 C 424.491 476.864,427.453 476.000,428.067 476.000 C 428.682 476.000,430.277 475.141,431.611 474.091 C 432.946 473.041,436.392 471.870,439.269 471.489 C 442.146 471.107,445.937 470.127,447.693 469.311 C 454.155 466.306,471.504 467.315,485.000 471.480 C 493.178 474.003,498.489 475.367,499.325 475.157 C 499.778 475.043,501.803 476.250,503.825 477.838 C 505.846 479.426,508.896 481.440,510.602 482.312 C 513.741 483.917,520.000 490.334,520.000 491.947 C 520.000 492.430,523.038 494.989,526.750 497.635 C 530.462 500.281,536.987 505.933,541.248 510.196 C 545.510 514.459,550.235 518.590,551.748 519.376 C 553.262 520.162,555.529 522.203,556.787 523.912 C 558.045 525.621,560.568 527.802,562.395 528.760 C 573.261 534.455,577.859 536.874,580.759 538.419 C 584.520 540.423,588.904 539.869,591.439 537.068 C 592.984 535.361,592.893 535.088,589.966 532.625 C 588.250 531.181,585.927 530.000,584.804 530.000 C 582.654 530.000,572.780 524.427,567.214 520.071 C 565.407 518.657,560.523 514.224,556.361 510.221 C 552.200 506.217,547.358 502.341,545.602 501.607 C 543.846 500.873,541.665 499.137,540.755 497.750 C 539.846 496.362,537.493 494.232,535.527 493.017 C 533.560 491.801,531.295 489.538,530.493 487.987 C 529.633 486.323,527.662 484.714,525.687 484.062 C 523.683 483.400,521.036 481.218,519.092 478.623 C 516.724 475.462,513.633 473.168,507.671 470.145 C 503.175 467.865,498.810 466.000,497.971 466.000 C 497.132 466.000,495.377 465.252,494.073 464.338 C 490.126 461.574,484.238 460.692,468.000 460.434 C 457.722 460.270,450.142 460.661,445.500 461.594 M632.655 486.829 C 630.315 489.415,630.586 491.116,633.827 494.175 C 636.655 496.844,647.931 502.000,650.940 502.000 C 651.818 502.000,654.191 503.125,656.215 504.500 C 658.238 505.875,660.930 507.007,662.197 507.015 C 664.501 507.029,671.491 509.195,674.763 510.909 C 678.619 512.928,707.810 516.213,709.450 514.812 C 709.972 514.365,715.290 514.000,721.266 514.000 C 727.242 514.000,733.047 513.510,734.165 512.912 C 735.283 512.313,739.380 511.824,743.269 511.824 C 747.966 511.824,751.132 511.304,752.702 510.276 C 754.001 509.425,758.236 508.501,762.113 508.224 C 770.324 507.636,780.000 503.192,780.000 500.007 C 780.000 494.056,776.960 493.659,764.660 498.000 C 759.985 499.650,754.833 501.000,753.210 501.000 C 751.588 501.000,747.417 501.908,743.942 503.018 C 739.496 504.439,732.388 505.364,719.954 506.139 C 704.646 507.094,700.562 507.012,689.392 505.526 C 676.120 503.761,658.854 498.712,654.000 495.176 C 651.739 493.529,635.538 485.000,634.671 485.000 C 634.472 485.000,633.565 485.823,632.655 486.829 M384.500 490.495 C 381.750 491.828,377.811 494.511,375.748 496.459 C 373.684 498.406,371.577 500.000,371.065 500.000 C 370.553 500.000,369.822 500.985,369.440 502.188 C 368.930 503.795,369.346 504.862,371.005 506.206 C 373.214 507.994,373.337 507.980,376.453 505.603 C 378.207 504.266,382.534 501.607,386.069 499.694 C 392.990 495.949,396.638 492.105,395.668 489.578 C 394.796 487.305,390.328 487.672,384.500 490.495 M454.572 499.003 C 447.994 500.180,443.109 505.203,440.017 513.966 C 436.588 523.684,436.305 531.437,439.177 536.997 C 440.455 539.470,442.541 542.001,443.814 542.621 C 445.086 543.241,447.451 545.016,449.069 546.566 C 451.157 548.566,453.167 549.443,456.000 549.588 C 458.771 549.729,459.779 549.441,459.303 548.646 C 458.925 548.016,459.409 548.144,460.379 548.931 C 462.231 550.435,474.000 551.357,474.000 549.998 C 474.000 549.571,474.563 549.243,475.250 549.269 C 478.698 549.397,480.069 548.921,479.395 547.830 C 478.915 547.053,479.209 546.866,480.271 547.274 C 481.151 547.611,482.012 547.575,482.185 547.194 C 482.358 546.812,484.358 545.292,486.629 543.816 C 491.398 540.716,494.925 534.349,495.149 528.434 C 495.365 522.734,492.439 513.691,489.254 510.214 C 487.739 508.560,486.002 506.375,485.394 505.358 C 484.786 504.342,482.168 502.419,479.578 501.086 C 474.285 498.362,463.275 497.445,454.572 499.003 M549.549 570.250 C 549.049 571.855,534.688 672.842,534.581 675.500 C 534.514 677.154,535.236 677.553,538.759 677.808 C 541.591 678.013,543.176 677.678,543.490 676.808 C 543.843 675.828,559.000 570.747,559.000 569.279 C 559.000 568.278,549.870 569.216,549.549 570.250 M795.000 569.388 C 795.000 570.928,789.750 605.575,789.475 605.854 C 789.282 606.049,786.546 604.946,783.394 603.404 C 778.490 601.005,776.495 600.611,769.581 600.674 C 764.720 600.718,759.707 601.406,757.000 602.401 C 739.898 608.687,729.632 625.377,729.566 647.000 C 729.530 659.175,731.644 665.697,737.541 671.594 C 746.797 680.849,765.059 681.535,776.750 673.066 L 780.828 670.112 781.700 673.799 C 782.624 677.706,784.324 678.638,788.579 677.570 C 790.830 677.005,791.000 676.505,791.000 670.451 C 791.000 666.869,793.925 643.335,797.500 618.152 C 801.075 592.969,804.000 571.607,804.000 570.682 C 804.000 569.355,803.050 569.000,799.500 569.000 C 797.025 569.000,795.000 569.175,795.000 569.388 M335.000 581.954 L 306.500 582.500 306.190 586.250 L 305.879 590.000 331.940 590.000 C 346.273 590.000,358.000 590.279,358.000 590.621 C 358.000 590.963,349.985 601.200,340.188 613.371 C 322.498 635.349,297.456 666.585,295.991 668.500 C 295.570 669.050,294.910 671.419,294.523 673.764 L 293.820 678.028 326.660 677.764 L 359.500 677.500 359.813 673.134 L 360.126 668.768 334.063 669.406 C 318.214 669.794,308.000 669.680,308.000 669.114 C 308.000 668.159,313.403 661.230,349.310 616.138 C 368.524 592.010,370.135 589.678,370.310 585.752 C 370.535 580.704,375.032 581.188,335.000 581.954 M484.000 601.115 C 476.888 602.305,469.464 605.960,463.504 611.205 L 458.751 615.389 461.431 617.695 C 462.905 618.963,464.427 620.000,464.813 620.000 C 465.199 620.000,467.986 617.964,471.007 615.476 C 486.300 602.881,507.032 606.581,506.986 621.898 C 506.963 629.921,506.329 630.999,501.633 631.006 C 494.896 631.016,478.972 633.756,472.174 636.076 C 459.409 640.432,452.986 648.254,453.016 659.407 C 453.048 670.989,459.811 677.734,472.408 678.745 C 480.644 679.406,488.292 677.132,495.139 671.988 L 500.484 667.971 501.992 672.736 C 503.379 677.118,503.780 677.524,507.000 677.795 C 508.925 677.956,511.313 677.494,512.306 676.767 C 513.976 675.545,513.995 675.220,512.562 672.472 C 510.493 668.505,510.571 666.402,513.582 644.921 C 516.844 621.652,516.613 614.589,512.419 609.306 C 506.781 602.203,496.026 599.103,484.000 601.115 M596.166 601.483 C 589.098 603.074,582.686 606.482,576.861 611.745 C 573.718 614.584,573.198 615.533,574.153 616.684 C 577.211 620.368,578.749 620.193,584.841 615.462 C 596.485 606.420,611.919 605.361,618.477 613.155 C 620.832 615.954,621.055 616.935,620.791 623.376 L 620.500 630.500 611.000 631.279 C 580.797 633.756,567.054 642.578,567.038 659.500 C 567.028 670.967,573.840 677.736,586.408 678.745 C 594.823 679.420,602.240 677.134,609.881 671.509 L 616.000 667.004 616.000 669.955 C 616.000 675.158,617.932 678.000,621.469 678.000 C 626.084 678.000,628.560 675.915,627.127 673.237 C 625.355 669.926,625.790 659.853,628.565 639.924 C 631.329 620.077,631.204 616.830,627.427 610.324 C 622.780 602.320,609.339 598.519,596.166 601.483 M686.000 601.074 C 683.525 601.545,677.995 603.706,673.710 605.878 C 667.152 609.201,666.017 609.523,666.528 607.913 C 667.343 605.343,666.289 602.325,664.309 601.565 C 663.421 601.224,661.255 601.421,659.496 602.001 L 656.297 603.057 655.661 613.779 C 655.312 619.675,653.303 636.321,651.198 650.768 C 649.093 665.216,647.587 677.254,647.852 677.518 C 648.686 678.353,655.857 678.040,656.410 677.146 C 656.701 676.676,658.743 663.612,660.948 648.115 C 665.525 615.961,664.567 618.135,676.948 611.800 C 682.610 608.902,684.344 608.500,691.175 608.500 C 698.265 608.500,699.190 608.736,701.616 611.161 C 705.628 615.173,705.617 620.335,701.534 648.500 C 699.541 662.250,698.164 674.513,698.474 675.750 C 698.897 677.436,699.765 678.000,701.937 678.000 C 707.052 678.000,708.000 677.141,708.000 672.512 C 708.000 670.161,709.350 658.905,711.000 647.500 C 714.339 624.417,714.752 614.355,712.536 610.069 C 710.255 605.658,705.531 602.280,699.980 601.089 C 694.253 599.861,692.396 599.859,686.000 601.074 M403.324 602.439 C 387.284 607.455,378.000 623.252,378.000 645.529 C 378.000 658.631,379.900 664.244,386.523 670.701 C 393.283 677.293,399.768 679.444,410.935 678.798 C 418.671 678.350,428.052 675.026,432.369 671.203 C 435.138 668.751,440.000 661.914,440.000 660.471 C 440.000 659.796,438.618 658.670,436.928 657.970 C 433.917 656.723,433.766 656.801,429.231 661.986 C 423.329 668.732,418.518 670.950,409.718 670.978 C 401.988 671.003,397.754 669.534,393.610 665.390 C 389.596 661.376,387.909 656.840,387.266 648.330 L 386.714 641.032 414.607 640.766 L 442.500 640.500 443.375 633.000 C 445.080 618.387,440.656 608.076,430.690 603.436 C 426.367 601.423,423.996 601.029,416.500 601.077 C 411.550 601.108,405.621 601.721,403.324 602.439 M425.729 609.964 C 432.412 612.998,436.298 621.813,434.520 629.908 L 433.841 633.000 411.341 633.000 L 388.841 633.000 389.544 629.750 C 391.454 620.914,398.646 612.080,406.137 609.369 C 411.387 607.469,420.868 607.757,425.729 609.964 M778.072 609.511 C 780.507 610.341,783.828 612.081,785.451 613.376 L 788.401 615.732 785.555 636.616 C 783.989 648.102,782.130 658.655,781.423 660.066 C 779.897 663.115,773.608 667.663,768.302 669.556 C 763.705 671.196,754.182 671.397,750.315 669.936 C 742.143 666.849,738.398 658.057,739.290 644.055 C 739.948 633.722,741.908 626.992,746.100 620.662 C 753.404 609.636,765.783 605.318,778.072 609.511 M619.000 639.459 C 619.000 640.262,618.482 644.401,617.849 648.658 C 616.760 655.979,616.435 656.660,611.835 661.261 C 600.054 673.041,581.718 674.749,577.421 664.466 C 575.543 659.971,575.656 657.355,577.943 652.316 C 581.379 644.750,590.953 640.644,608.889 639.046 C 613.625 638.624,617.837 638.216,618.250 638.139 C 618.663 638.063,619.000 638.657,619.000 639.459 M504.611 642.197 C 504.259 643.956,503.686 647.819,503.338 650.782 C 502.785 655.485,502.090 656.801,497.872 661.131 C 495.188 663.887,490.552 667.232,487.443 668.655 C 482.705 670.824,480.765 671.156,474.803 670.819 C 468.605 670.469,467.474 670.090,465.387 667.663 C 459.106 660.361,462.292 649.299,472.135 644.233 C 477.628 641.407,488.806 639.216,498.375 639.090 L 505.250 639.000 504.611 642.197 " stroke="none" fill="rgb(2, 73, 47)" fill-rule="evenodd"/></svg>